<?xml version="1.0" encoding="UTF-8"?>
<svg width="1437.708538654905" height="581.7477626540199" 
     viewBox="0 0 1437.708538654905 581.7477626540199"
     xmlns="http://www.w3.org/2000/svg">
  <title>GitHub Contribution Graph for eshahhh</title>
  <desc>3D isometric graph of GitHub contributions with proper lighting and depth</desc>
  
  <defs>
    <style>
      .title-text { 
        font-family: 'Segoe UI', Arial, sans-serif; 
        font-size: 18px; 
        font-weight: 600; 
        fill: #6e7781; 
        text-shadow: 0 1px 2px rgba(0,0,0,0.1);
      }
      .subtitle-text { 
        font-family: 'Segoe UI', Arial, sans-serif; 
        font-size: 13px; 
        fill: #6e7781; 
        font-weight: 400;
      }
      .credit-text {
        font-family: 'Segoe UI', Arial, sans-serif;
        font-size: 8px;
        fill: #6e7781;
        opacity: 0.9;
      }
      .terrain-group {
        filter: drop-shadow(0 2px 4px rgba(0,0,0,0.1));
      }
    </style>
    
    <defs>
      <linearGradient id="depthGradient" x1="0%" y1="0%" x2="100%" y2="100%">
        <stop offset="0%" style="stop-color:rgba(255,255,255,0.1);stop-opacity:1" />
        <stop offset="100%" style="stop-color:rgba(0,0,0,0.05);stop-opacity:1" />
      </linearGradient>
    </defs>
  </defs>
  
  <text x="25" y="35" class="title-text">GitHub Contribution Graph</text>
  <text x="25" y="52" class="subtitle-text">eshahhh</text>
  
  <g class="terrain-group" transform="translate(40, 80)">
    <polygon points="120,120 140,119.83 130.15,137.23 110.15,137.41" fill="#151B23" stroke="#262C36" stroke-width="0.6"/>
    <polygon points="140,119.83 160,119.65 150.15,137.06 130.15,137.23" fill="#151B23" stroke="#262C36" stroke-width="0.6"/>
    <polygon points="110.15,137.41 130.15,137.23 120.3,154.64 100.3,154.81" fill="#151B23" stroke="#262C36" stroke-width="0.6"/>
    <polygon points="160,119.65 180,119.48 170.15,136.88 150.15,137.06" fill="#151B23" stroke="#262C36" stroke-width="0.6"/>
    <polygon points="130.15,137.23 150.15,137.06 140.3,154.47 120.3,154.64" fill="#151B23" stroke="#262C36" stroke-width="0.6"/>
    <polygon points="100.3,154.81 120.3,154.64 110.45,172.05 90.45,172.22" fill="#151B23" stroke="#262C36" stroke-width="0.6"/>
    <polygon points="180,119.48 200,119.3 190.15,136.71 170.15,136.88" fill="#151B23" stroke="#262C36" stroke-width="0.6"/>
    <polygon points="150.15,137.06 170.15,136.88 160.3,154.29 140.3,154.47" fill="#151B23" stroke="#262C36" stroke-width="0.6"/>
    <polygon points="120.3,154.64 140.3,154.47 130.45,171.87 110.45,172.05" fill="#151B23" stroke="#262C36" stroke-width="0.6"/>
    <polygon points="90.45,172.22 110.45,172.05 100.61,189.45 80.61,189.63" fill="#151B23" stroke="#262C36" stroke-width="0.6"/>
    <polygon points="200,119.3 220,119.13 210.15,136.53 190.15,136.71" fill="#151B23" stroke="#262C36" stroke-width="0.6"/>
    <polygon points="170.15,136.88 190.15,136.71 180.3,154.12 160.3,154.29" fill="#151B23" stroke="#262C36" stroke-width="0.6"/>
    <polygon points="140.3,154.47 160.3,154.29 150.45,171.7 130.45,171.87" fill="#151B23" stroke="#262C36" stroke-width="0.6"/>
    <polygon points="110.45,172.05 130.45,171.87 120.6,189.28 100.61,189.45" fill="#151B23" stroke="#262C36" stroke-width="0.6"/>
    <polygon points="80.61,189.63 100.61,189.45 90.76,206.86 70.76,207.04" fill="#151B23" stroke="#262C36" stroke-width="0.6"/>
    <polygon points="220,119.13 240,118.95 230.15,136.36 210.15,136.53" fill="#151B23" stroke="#262C36" stroke-width="0.6"/>
    <polygon points="190.15,136.71 210.15,136.53 200.3,153.94 180.3,154.12" fill="#151B23" stroke="#262C36" stroke-width="0.6"/>
    <polygon points="160.3,154.29 180.3,154.12 170.45,171.52 150.45,171.7" fill="#151B23" stroke="#262C36" stroke-width="0.6"/>
    <polygon points="130.45,171.87 150.45,171.7 140.6,189.1 120.6,189.28" fill="#151B23" stroke="#262C36" stroke-width="0.6"/>
    <polygon points="100.61,189.45 120.6,189.28 110.76,206.69 90.76,206.86" fill="#151B23" stroke="#262C36" stroke-width="0.6"/>
    <polygon points="70.76,207.04 90.76,206.86 80.91,224.27 60.91,224.44" fill="#151B23" stroke="#262C36" stroke-width="0.6"/>
    <polygon points="240,118.95 259.99,118.78 250.15,136.19 230.15,136.36" fill="#151B23" stroke="#262C36" stroke-width="0.6"/>
    <polygon points="210.15,136.53 230.15,136.36 220.3,153.77 200.3,153.94" fill="#151B23" stroke="#262C36" stroke-width="0.6"/>
    <polygon points="180.3,154.12 200.3,153.94 190.45,171.35 170.45,171.52" fill="#151B23" stroke="#262C36" stroke-width="0.6"/>
    <polygon points="150.45,171.7 170.45,171.52 160.6,188.93 140.6,189.1" fill="#151B23" stroke="#262C36" stroke-width="0.6"/>
    <polygon points="120.6,189.28 140.6,189.1 130.76,206.51 110.76,206.69" fill="#151B23" stroke="#262C36" stroke-width="0.6"/>
    <polygon points="60.91,224.44 80.91,224.27 71.06,241.68 51.06,241.85" fill="#151B23" stroke="#262C36" stroke-width="0.6"/>
    <polygon points="259.99,118.78 279.99,118.6 270.15,136.01 250.15,136.19" fill="#151B23" stroke="#262C36" stroke-width="0.6"/>
    <polygon points="230.15,136.36 250.15,136.19 240.3,153.59 220.3,153.77" fill="#151B23" stroke="#262C36" stroke-width="0.6"/>
    <polygon points="200.3,153.94 220.3,153.77 210.45,171.17 190.45,171.35" fill="#151B23" stroke="#262C36" stroke-width="0.6"/>
    <polygon points="170.45,171.52 190.45,171.35 180.6,188.76 160.6,188.93" fill="#151B23" stroke="#262C36" stroke-width="0.6"/>
    <polygon points="140.6,189.1 160.6,188.93 150.75,206.34 130.76,206.51" fill="#151B23" stroke="#262C36" stroke-width="0.6"/>
    <polygon points="110.76,206.69 130.76,206.51 120.91,223.92 100.91,224.09" fill="#151B23" stroke="#262C36" stroke-width="0.6"/>
    <polygon points="80.91,224.27 100.91,224.09 91.06,241.5 71.06,241.68" fill="#151B23" stroke="#262C36" stroke-width="0.6"/>
    <polygon points="279.99,118.6 299.99,118.43 290.14,135.84 270.15,136.01" fill="#151B23" stroke="#262C36" stroke-width="0.6"/>
    <polygon points="250.15,136.19 270.15,136.01 260.3,153.42 240.3,153.59" fill="#151B23" stroke="#262C36" stroke-width="0.6"/>
    <polygon points="220.3,153.77 240.3,153.59 230.45,171 210.45,171.17" fill="#151B23" stroke="#262C36" stroke-width="0.6"/>
    <polygon points="190.45,171.35 210.45,171.17 200.6,188.58 180.6,188.76" fill="#151B23" stroke="#262C36" stroke-width="0.6"/>
    <polygon points="160.6,188.93 180.6,188.76 170.75,206.16 150.75,206.34" fill="#151B23" stroke="#262C36" stroke-width="0.6"/>
    <polygon points="130.76,206.51 150.75,206.34 140.91,223.74 120.91,223.92" fill="#151B23" stroke="#262C36" stroke-width="0.6"/>
    <polygon points="100.91,224.09 120.91,223.92 111.06,241.33 91.06,241.5" fill="#151B23" stroke="#262C36" stroke-width="0.6"/>
    <polygon points="299.99,118.43 319.99,118.25 310.14,135.66 290.14,135.84" fill="#151B23" stroke="#262C36" stroke-width="0.6"/>
    <polygon points="270.15,136.01 290.14,135.84 280.3,153.24 260.3,153.42" fill="#151B23" stroke="#262C36" stroke-width="0.6"/>
    <polygon points="240.3,153.59 260.3,153.42 250.45,170.83 230.45,171" fill="#151B23" stroke="#262C36" stroke-width="0.6"/>
    <polygon points="210.45,171.17 230.45,171 220.6,188.41 200.6,188.58" fill="#151B23" stroke="#262C36" stroke-width="0.6"/>
    <polygon points="180.6,188.76 200.6,188.58 190.75,205.99 170.75,206.16" fill="#151B23" stroke="#262C36" stroke-width="0.6"/>
    <polygon points="150.75,206.34 170.75,206.16 160.91,223.57 140.91,223.74" fill="#151B23" stroke="#262C36" stroke-width="0.6"/>
    <polygon points="120.91,223.92 140.91,223.74 131.06,241.15 111.06,241.33" fill="#151B23" stroke="#262C36" stroke-width="0.6"/>
    <polygon points="319.99,118.25 339.99,118.08 330.14,135.49 310.14,135.66" fill="#151B23" stroke="#262C36" stroke-width="0.6"/>
    <polygon points="290.14,135.84 310.14,135.66 300.3,153.07 280.3,153.24" fill="#151B23" stroke="#262C36" stroke-width="0.6"/>
    <polygon points="260.3,153.42 280.3,153.24 270.45,170.65 250.45,170.83" fill="#151B23" stroke="#262C36" stroke-width="0.6"/>
    <polygon points="230.45,171 250.45,170.83 240.6,188.23 220.6,188.41" fill="#151B23" stroke="#262C36" stroke-width="0.6"/>
    <polygon points="200.6,188.58 220.6,188.41 210.75,205.81 190.75,205.99" fill="#151B23" stroke="#262C36" stroke-width="0.6"/>
    <polygon points="170.75,206.16 190.75,205.99 180.9,223.4 160.91,223.57" fill="#151B23" stroke="#262C36" stroke-width="0.6"/>
    <polygon points="140.91,223.74 160.91,223.57 151.06,240.98 131.06,241.15" fill="#151B23" stroke="#262C36" stroke-width="0.6"/>
    <polygon points="339.99,118.08 359.99,117.91 350.14,135.31 330.14,135.49" fill="#151B23" stroke="#262C36" stroke-width="0.6"/>
    <polygon points="310.14,135.66 330.14,135.49 320.29,152.89 300.3,153.07" fill="#151B23" stroke="#262C36" stroke-width="0.6"/>
    <polygon points="280.3,153.24 300.3,153.07 290.45,170.48 270.45,170.65" fill="#151B23" stroke="#262C36" stroke-width="0.6"/>
    <polygon points="250.45,170.83 270.45,170.65 260.6,188.06 240.6,188.23" fill="#151B23" stroke="#262C36" stroke-width="0.6"/>
    <polygon points="220.6,188.41 240.6,188.23 230.75,205.64 210.75,205.81" fill="#151B23" stroke="#262C36" stroke-width="0.6"/>
    <polygon points="190.75,205.99 210.75,205.81 200.9,223.22 180.9,223.4" fill="#151B23" stroke="#262C36" stroke-width="0.6"/>
    <polygon points="160.91,223.57 180.9,223.4 171.06,240.8 151.06,240.98" fill="#151B23" stroke="#262C36" stroke-width="0.6"/>
    <polygon points="359.99,117.91 379.99,117.73 370.14,135.14 350.14,135.31" fill="#151B23" stroke="#262C36" stroke-width="0.6"/>
    <polygon points="330.14,135.49 350.14,135.31 340.29,152.72 320.29,152.89" fill="#151B23" stroke="#262C36" stroke-width="0.6"/>
    <polygon points="300.3,153.07 320.29,152.89 310.45,170.3 290.45,170.48" fill="#151B23" stroke="#262C36" stroke-width="0.6"/>
    <polygon points="270.45,170.65 290.45,170.48 280.6,187.88 260.6,188.06" fill="#151B23" stroke="#262C36" stroke-width="0.6"/>
    <polygon points="240.6,188.23 260.6,188.06 250.75,205.46 230.75,205.64" fill="#151B23" stroke="#262C36" stroke-width="0.6"/>
    <polygon points="210.75,205.81 230.75,205.64 220.9,223.05 200.9,223.22" fill="#151B23" stroke="#262C36" stroke-width="0.6"/>
    <polygon points="180.9,223.4 200.9,223.22 191.06,240.63 171.06,240.8" fill="#151B23" stroke="#262C36" stroke-width="0.6"/>
    <polygon points="379.99,117.73 399.99,117.56 390.14,134.96 370.14,135.14" fill="#151B23" stroke="#262C36" stroke-width="0.6"/>
    <polygon points="350.14,135.31 370.14,135.14 360.29,152.55 340.29,152.72" fill="#151B23" stroke="#262C36" stroke-width="0.6"/>
    <polygon points="320.29,152.89 340.29,152.72 330.45,170.13 310.45,170.3" fill="#151B23" stroke="#262C36" stroke-width="0.6"/>
    <polygon points="290.45,170.48 310.45,170.3 300.6,187.71 280.6,187.88" fill="#151B23" stroke="#262C36" stroke-width="0.6"/>
    <polygon points="260.6,188.06 280.6,187.88 270.75,205.29 250.75,205.46" fill="#151B23" stroke="#262C36" stroke-width="0.6"/>
    <polygon points="230.75,205.64 250.75,205.46 240.9,222.87 220.9,223.05" fill="#151B23" stroke="#262C36" stroke-width="0.6"/>
    <polygon points="200.9,223.22 220.9,223.05 211.05,240.45 191.06,240.63" fill="#151B23" stroke="#262C36" stroke-width="0.6"/>
    <polygon points="399.99,117.56 419.99,117.38 410.14,134.79 390.14,134.96" fill="#151B23" stroke="#262C36" stroke-width="0.6"/>
    <polygon points="370.14,135.14 390.14,134.96 380.29,152.37 360.29,152.55" fill="#151B23" stroke="#262C36" stroke-width="0.6"/>
    <polygon points="340.29,152.72 360.29,152.55 350.44,169.95 330.45,170.13" fill="#151B23" stroke="#262C36" stroke-width="0.6"/>
    <polygon points="310.45,170.3 330.45,170.13 320.6,187.53 300.6,187.71" fill="#151B23" stroke="#262C36" stroke-width="0.6"/>
    <polygon points="280.6,187.88 300.6,187.71 290.75,205.12 270.75,205.29" fill="#151B23" stroke="#262C36" stroke-width="0.6"/>
    <polygon points="250.75,205.46 270.75,205.29 260.9,222.7 240.9,222.87" fill="#151B23" stroke="#262C36" stroke-width="0.6"/>
    <polygon points="220.9,223.05 240.9,222.87 231.05,240.28 211.05,240.45" fill="#151B23" stroke="#262C36" stroke-width="0.6"/>
    <polygon points="419.99,117.38 439.99,117.21 430.14,134.61 410.14,134.79" fill="#151B23" stroke="#262C36" stroke-width="0.6"/>
    <polygon points="390.14,134.96 410.14,134.79 400.29,152.2 380.29,152.37" fill="#151B23" stroke="#262C36" stroke-width="0.6"/>
    <polygon points="360.29,152.55 380.29,152.37 370.44,169.78 350.44,169.95" fill="#151B23" stroke="#262C36" stroke-width="0.6"/>
    <polygon points="330.45,170.13 350.44,169.95 340.6,187.36 320.6,187.53" fill="#151B23" stroke="#262C36" stroke-width="0.6"/>
    <polygon points="300.6,187.71 320.6,187.53 310.75,204.94 290.75,205.12" fill="#151B23" stroke="#262C36" stroke-width="0.6"/>
    <polygon points="270.75,205.29 290.75,205.12 280.9,222.52 260.9,222.7" fill="#151B23" stroke="#262C36" stroke-width="0.6"/>
    <polygon points="240.9,222.87 260.9,222.7 251.05,240.1 231.05,240.28" fill="#151B23" stroke="#262C36" stroke-width="0.6"/>
    <polygon points="439.99,117.21 459.99,117.03 450.14,134.44 430.14,134.61" fill="#151B23" stroke="#262C36" stroke-width="0.6"/>
    <polygon points="410.14,134.79 430.14,134.61 420.29,152.02 400.29,152.2" fill="#151B23" stroke="#262C36" stroke-width="0.6"/>
    <polygon points="380.29,152.37 400.29,152.2 390.44,169.6 370.44,169.78" fill="#151B23" stroke="#262C36" stroke-width="0.6"/>
    <polygon points="350.44,169.95 370.44,169.78 360.6,187.19 340.6,187.36" fill="#151B23" stroke="#262C36" stroke-width="0.6"/>
    <polygon points="320.6,187.53 340.6,187.36 330.75,204.77 310.75,204.94" fill="#151B23" stroke="#262C36" stroke-width="0.6"/>
    <polygon points="290.75,205.12 310.75,204.94 300.9,222.35 280.9,222.52" fill="#151B23" stroke="#262C36" stroke-width="0.6"/>
    <polygon points="260.9,222.7 280.9,222.52 271.05,239.93 251.05,240.1" fill="#151B23" stroke="#262C36" stroke-width="0.6"/>
    <polygon points="459.99,117.03 479.99,116.86 470.14,134.27 450.14,134.44" fill="#151B23" stroke="#262C36" stroke-width="0.6"/>
    <polygon points="430.14,134.61 450.14,134.44 440.29,151.85 420.29,152.02" fill="#151B23" stroke="#262C36" stroke-width="0.6"/>
    <polygon points="400.29,152.2 420.29,152.02 410.44,169.43 390.44,169.6" fill="#151B23" stroke="#262C36" stroke-width="0.6"/>
    <polygon points="370.44,169.78 390.44,169.6 380.59,187.01 360.6,187.19" fill="#151B23" stroke="#262C36" stroke-width="0.6"/>
    <polygon points="340.6,187.36 360.6,187.19 350.75,204.59 330.75,204.77" fill="#151B23" stroke="#262C36" stroke-width="0.6"/>
    <polygon points="310.75,204.94 330.75,204.77 320.9,222.17 300.9,222.35" fill="#151B23" stroke="#262C36" stroke-width="0.6"/>
    <polygon points="280.9,222.52 300.9,222.35 291.05,239.76 271.05,239.93" fill="#151B23" stroke="#262C36" stroke-width="0.6"/>
    <polygon points="479.99,116.86 499.99,116.68 490.14,134.09 470.14,134.27" fill="#151B23" stroke="#262C36" stroke-width="0.6"/>
    <polygon points="450.14,134.44 470.14,134.27 460.29,151.67 440.29,151.85" fill="#151B23" stroke="#262C36" stroke-width="0.6"/>
    <polygon points="420.29,152.02 440.29,151.85 430.44,169.25 410.44,169.43" fill="#151B23" stroke="#262C36" stroke-width="0.6"/>
    <polygon points="390.44,169.6 410.44,169.43 400.59,186.84 380.59,187.01" fill="#151B23" stroke="#262C36" stroke-width="0.6"/>
    <polygon points="360.6,187.19 380.59,187.01 370.75,204.42 350.75,204.59" fill="#151B23" stroke="#262C36" stroke-width="0.6"/>
    <polygon points="330.75,204.77 350.75,204.59 340.9,222 320.9,222.17" fill="#151B23" stroke="#262C36" stroke-width="0.6"/>
    <polygon points="300.9,222.35 320.9,222.17 311.05,239.58 291.05,239.76" fill="#151B23" stroke="#262C36" stroke-width="0.6"/>
    <polygon points="499.99,116.68 519.98,116.51 510.14,133.92 490.14,134.09" fill="#151B23" stroke="#262C36" stroke-width="0.6"/>
    <polygon points="470.14,134.27 490.14,134.09 480.29,151.5 460.29,151.67" fill="#151B23" stroke="#262C36" stroke-width="0.6"/>
    <polygon points="440.29,151.85 460.29,151.67 450.44,169.08 430.44,169.25" fill="#151B23" stroke="#262C36" stroke-width="0.6"/>
    <polygon points="410.44,169.43 430.44,169.25 420.59,186.66 400.59,186.84" fill="#151B23" stroke="#262C36" stroke-width="0.6"/>
    <polygon points="380.59,187.01 400.59,186.84 390.75,204.24 370.75,204.42" fill="#151B23" stroke="#262C36" stroke-width="0.6"/>
    <polygon points="350.75,204.59 370.75,204.42 360.9,221.82 340.9,222" fill="#151B23" stroke="#262C36" stroke-width="0.6"/>
    <polygon points="320.9,222.17 340.9,222 331.05,239.41 311.05,239.58" fill="#151B23" stroke="#262C36" stroke-width="0.6"/>
    <polygon points="519.98,116.51 539.98,116.33 530.14,133.74 510.14,133.92" fill="#151B23" stroke="#262C36" stroke-width="0.6"/>
    <polygon points="490.14,134.09 510.14,133.92 500.29,151.32 480.29,151.5" fill="#151B23" stroke="#262C36" stroke-width="0.6"/>
    <polygon points="460.29,151.67 480.29,151.5 470.44,168.91 450.44,169.08" fill="#151B23" stroke="#262C36" stroke-width="0.6"/>
    <polygon points="430.44,169.25 450.44,169.08 440.59,186.49 420.59,186.66" fill="#151B23" stroke="#262C36" stroke-width="0.6"/>
    <polygon points="400.59,186.84 420.59,186.66 410.74,204.07 390.75,204.24" fill="#151B23" stroke="#262C36" stroke-width="0.6"/>
    <polygon points="370.75,204.42 390.75,204.24 380.9,221.65 360.9,221.82" fill="#151B23" stroke="#262C36" stroke-width="0.6"/>
    <polygon points="340.9,222 360.9,221.82 351.05,239.23 331.05,239.41" fill="#151B23" stroke="#262C36" stroke-width="0.6"/>
    <polygon points="539.98,116.33 559.98,116.16 550.13,133.57 530.14,133.74" fill="#151B23" stroke="#262C36" stroke-width="0.6"/>
    <polygon points="510.14,133.92 530.14,133.74 520.29,151.15 500.29,151.32" fill="#151B23" stroke="#262C36" stroke-width="0.6"/>
    <polygon points="480.29,151.5 500.29,151.32 490.44,168.73 470.44,168.91" fill="#151B23" stroke="#262C36" stroke-width="0.6"/>
    <polygon points="450.44,169.08 470.44,168.91 460.59,186.31 440.59,186.49" fill="#151B23" stroke="#262C36" stroke-width="0.6"/>
    <polygon points="420.59,186.66 440.59,186.49 430.74,203.89 410.74,204.07" fill="#151B23" stroke="#262C36" stroke-width="0.6"/>
    <polygon points="390.75,204.24 410.74,204.07 400.9,221.48 380.9,221.65" fill="#151B23" stroke="#262C36" stroke-width="0.6"/>
    <polygon points="360.9,221.82 380.9,221.65 371.05,239.06 351.05,239.23" fill="#151B23" stroke="#262C36" stroke-width="0.6"/>
    <polygon points="559.98,116.16 579.98,115.99 570.13,133.39 550.13,133.57" fill="#151B23" stroke="#262C36" stroke-width="0.6"/>
    <polygon points="530.14,133.74 550.13,133.57 540.29,150.97 520.29,151.15" fill="#151B23" stroke="#262C36" stroke-width="0.6"/>
    <polygon points="500.29,151.32 520.29,151.15 510.44,168.56 490.44,168.73" fill="#151B23" stroke="#262C36" stroke-width="0.6"/>
    <polygon points="470.44,168.91 490.44,168.73 480.59,186.14 460.59,186.31" fill="#151B23" stroke="#262C36" stroke-width="0.6"/>
    <polygon points="440.59,186.49 460.59,186.31 450.74,203.72 430.74,203.89" fill="#151B23" stroke="#262C36" stroke-width="0.6"/>
    <polygon points="410.74,204.07 430.74,203.89 420.9,221.3 400.9,221.48" fill="#151B23" stroke="#262C36" stroke-width="0.6"/>
    <polygon points="380.9,221.65 400.9,221.48 391.05,238.88 371.05,239.06" fill="#151B23" stroke="#262C36" stroke-width="0.6"/>
    <polygon points="579.98,115.99 599.98,115.81 590.13,133.22 570.13,133.39" fill="#151B23" stroke="#262C36" stroke-width="0.6"/>
    <polygon points="550.13,133.57 570.13,133.39 560.29,150.8 540.29,150.97" fill="#151B23" stroke="#262C36" stroke-width="0.6"/>
    <polygon points="520.29,151.15 540.29,150.97 530.44,168.38 510.44,168.56" fill="#151B23" stroke="#262C36" stroke-width="0.6"/>
    <polygon points="490.44,168.73 510.44,168.56 500.59,185.96 480.59,186.14" fill="#151B23" stroke="#262C36" stroke-width="0.6"/>
    <polygon points="460.59,186.31 480.59,186.14 470.74,203.54 450.74,203.72" fill="#151B23" stroke="#262C36" stroke-width="0.6"/>
    <polygon points="430.74,203.89 450.74,203.72 440.89,221.13 420.9,221.3" fill="#151B23" stroke="#262C36" stroke-width="0.6"/>
    <polygon points="400.9,221.48 420.9,221.3 411.05,238.71 391.05,238.88" fill="#151B23" stroke="#262C36" stroke-width="0.6"/>
    <polygon points="599.98,115.81 619.98,115.64 610.13,133.04 590.13,133.22" fill="#151B23" stroke="#262C36" stroke-width="0.6"/>
    <polygon points="570.13,133.39 590.13,133.22 580.28,150.63 560.29,150.8" fill="#151B23" stroke="#262C36" stroke-width="0.6"/>
    <polygon points="540.29,150.97 560.29,150.8 550.44,168.21 530.44,168.38" fill="#151B23" stroke="#262C36" stroke-width="0.6"/>
    <polygon points="510.44,168.56 530.44,168.38 520.59,185.79 500.59,185.96" fill="#151B23" stroke="#262C36" stroke-width="0.6"/>
    <polygon points="480.59,186.14 500.59,185.96 490.74,203.37 470.74,203.54" fill="#151B23" stroke="#262C36" stroke-width="0.6"/>
    <polygon points="420.9,221.3 440.89,221.13 431.05,238.53 411.05,238.71" fill="#151B23" stroke="#262C36" stroke-width="0.6"/>
    <polygon points="619.98,115.64 639.98,115.46 630.13,132.87 610.13,133.04" fill="#151B23" stroke="#262C36" stroke-width="0.6"/>
    <polygon points="590.13,133.22 610.13,133.04 600.28,150.45 580.28,150.63" fill="#151B23" stroke="#262C36" stroke-width="0.6"/>
    <polygon points="560.29,150.8 580.28,150.63 570.44,168.03 550.44,168.21" fill="#151B23" stroke="#262C36" stroke-width="0.6"/>
    <polygon points="530.44,168.38 550.44,168.21 540.59,185.61 520.59,185.79" fill="#151B23" stroke="#262C36" stroke-width="0.6"/>
    <polygon points="500.59,185.96 520.59,185.79 510.74,203.2 490.74,203.37" fill="#151B23" stroke="#262C36" stroke-width="0.6"/>
    <polygon points="470.74,203.54 490.74,203.37 480.89,220.78 460.89,220.95" fill="#151B23" stroke="#262C36" stroke-width="0.6"/>
    <polygon points="440.89,221.13 460.89,220.95 451.05,238.36 431.05,238.53" fill="#151B23" stroke="#262C36" stroke-width="0.6"/>
    <polygon points="639.98,115.46 659.98,115.29 650.13,132.69 630.13,132.87" fill="#151B23" stroke="#262C36" stroke-width="0.6"/>
    <polygon points="610.13,133.04 630.13,132.87 620.28,150.28 600.28,150.45" fill="#151B23" stroke="#262C36" stroke-width="0.6"/>
    <polygon points="580.28,150.63 600.28,150.45 590.44,167.86 570.44,168.03" fill="#151B23" stroke="#262C36" stroke-width="0.6"/>
    <polygon points="550.44,168.21 570.44,168.03 560.59,185.44 540.59,185.61" fill="#151B23" stroke="#262C36" stroke-width="0.6"/>
    <polygon points="520.59,185.79 540.59,185.61 530.74,203.02 510.74,203.2" fill="#151B23" stroke="#262C36" stroke-width="0.6"/>
    <polygon points="490.74,203.37 510.74,203.2 500.89,220.6 480.89,220.78" fill="#151B23" stroke="#262C36" stroke-width="0.6"/>
    <polygon points="460.89,220.95 480.89,220.78 471.04,238.18 451.05,238.36" fill="#151B23" stroke="#262C36" stroke-width="0.6"/>
    <polygon points="659.98,115.29 679.98,115.11 670.13,132.52 650.13,132.69" fill="#151B23" stroke="#262C36" stroke-width="0.6"/>
    <polygon points="630.13,132.87 650.13,132.69 640.28,150.1 620.28,150.28" fill="#151B23" stroke="#262C36" stroke-width="0.6"/>
    <polygon points="600.28,150.45 620.28,150.28 610.43,167.68 590.44,167.86" fill="#151B23" stroke="#262C36" stroke-width="0.6"/>
    <polygon points="570.44,168.03 590.44,167.86 580.59,185.27 560.59,185.44" fill="#151B23" stroke="#262C36" stroke-width="0.6"/>
    <polygon points="540.59,185.61 560.59,185.44 550.74,202.85 530.74,203.02" fill="#151B23" stroke="#262C36" stroke-width="0.6"/>
    <polygon points="510.74,203.2 530.74,203.02 520.89,220.43 500.89,220.6" fill="#151B23" stroke="#262C36" stroke-width="0.6"/>
    <polygon points="480.89,220.78 500.89,220.6 491.04,238.01 471.04,238.18" fill="#151B23" stroke="#262C36" stroke-width="0.6"/>
    <polygon points="679.98,115.11 699.98,114.94 690.13,132.35 670.13,132.52" fill="#151B23" stroke="#262C36" stroke-width="0.6"/>
    <polygon points="650.13,132.69 670.13,132.52 660.28,149.93 640.28,150.1" fill="#151B23" stroke="#262C36" stroke-width="0.6"/>
    <polygon points="620.28,150.28 640.28,150.1 630.43,167.51 610.43,167.68" fill="#151B23" stroke="#262C36" stroke-width="0.6"/>
    <polygon points="590.44,167.86 610.43,167.68 600.59,185.09 580.59,185.27" fill="#151B23" stroke="#262C36" stroke-width="0.6"/>
    <polygon points="560.59,185.44 580.59,185.27 570.74,202.67 550.74,202.85" fill="#151B23" stroke="#262C36" stroke-width="0.6"/>
    <polygon points="530.74,203.02 550.74,202.85 540.89,220.25 520.89,220.43" fill="#151B23" stroke="#262C36" stroke-width="0.6"/>
    <polygon points="500.89,220.6 520.89,220.43 511.04,237.84 491.04,238.01" fill="#151B23" stroke="#262C36" stroke-width="0.6"/>
    <polygon points="699.98,114.94 719.98,114.76 710.13,132.17 690.13,132.35" fill="#151B23" stroke="#262C36" stroke-width="0.6"/>
    <polygon points="670.13,132.52 690.13,132.35 680.28,149.75 660.28,149.93" fill="#151B23" stroke="#262C36" stroke-width="0.6"/>
    <polygon points="640.28,150.1 660.28,149.93 650.43,167.33 630.43,167.51" fill="#151B23" stroke="#262C36" stroke-width="0.6"/>
    <polygon points="610.43,167.68 630.43,167.51 620.59,184.92 600.59,185.09" fill="#151B23" stroke="#262C36" stroke-width="0.6"/>
    <polygon points="580.59,185.27 600.59,185.09 590.74,202.5 570.74,202.67" fill="#151B23" stroke="#262C36" stroke-width="0.6"/>
    <polygon points="550.74,202.85 570.74,202.67 560.89,220.08 540.89,220.25" fill="#151B23" stroke="#262C36" stroke-width="0.6"/>
    <polygon points="520.89,220.43 540.89,220.25 531.04,237.66 511.04,237.84" fill="#151B23" stroke="#262C36" stroke-width="0.6"/>
    <polygon points="719.98,114.76 739.98,114.59 730.13,132 710.13,132.17" fill="#151B23" stroke="#262C36" stroke-width="0.6"/>
    <polygon points="690.13,132.35 710.13,132.17 700.28,149.58 680.28,149.75" fill="#151B23" stroke="#262C36" stroke-width="0.6"/>
    <polygon points="660.28,149.93 680.28,149.75 670.43,167.16 650.43,167.33" fill="#151B23" stroke="#262C36" stroke-width="0.6"/>
    <polygon points="630.43,167.51 650.43,167.33 640.58,184.74 620.59,184.92" fill="#151B23" stroke="#262C36" stroke-width="0.6"/>
    <polygon points="600.59,185.09 620.59,184.92 610.74,202.32 590.74,202.5" fill="#151B23" stroke="#262C36" stroke-width="0.6"/>
    <polygon points="570.74,202.67 590.74,202.5 580.89,219.9 560.89,220.08" fill="#151B23" stroke="#262C36" stroke-width="0.6"/>
    <polygon points="540.89,220.25 560.89,220.08 551.04,237.49 531.04,237.66" fill="#151B23" stroke="#262C36" stroke-width="0.6"/>
    <polygon points="739.98,114.59 759.98,114.42 750.13,131.82 730.13,132" fill="#151B23" stroke="#262C36" stroke-width="0.6"/>
    <polygon points="710.13,132.17 730.13,132 720.28,149.4 700.28,149.58" fill="#151B23" stroke="#262C36" stroke-width="0.6"/>
    <polygon points="680.28,149.75 700.28,149.58 690.43,166.99 670.43,167.16" fill="#151B23" stroke="#262C36" stroke-width="0.6"/>
    <polygon points="650.43,167.33 670.43,167.16 660.58,184.57 640.58,184.74" fill="#151B23" stroke="#262C36" stroke-width="0.6"/>
    <polygon points="620.59,184.92 640.58,184.74 630.74,202.15 610.74,202.32" fill="#151B23" stroke="#262C36" stroke-width="0.6"/>
    <polygon points="590.74,202.5 610.74,202.32 600.89,219.73 580.89,219.9" fill="#151B23" stroke="#262C36" stroke-width="0.6"/>
    <polygon points="560.89,220.08 580.89,219.9 571.04,237.31 551.04,237.49" fill="#151B23" stroke="#262C36" stroke-width="0.6"/>
    <polygon points="759.98,114.42 779.97,114.24 770.13,131.65 750.13,131.82" fill="#151B23" stroke="#262C36" stroke-width="0.6"/>
    <polygon points="730.13,132 750.13,131.82 740.28,149.23 720.28,149.4" fill="#151B23" stroke="#262C36" stroke-width="0.6"/>
    <polygon points="700.28,149.58 720.28,149.4 710.43,166.81 690.43,166.99" fill="#151B23" stroke="#262C36" stroke-width="0.6"/>
    <polygon points="670.43,167.16 690.43,166.99 680.58,184.39 660.58,184.57" fill="#151B23" stroke="#262C36" stroke-width="0.6"/>
    <polygon points="640.58,184.74 660.58,184.57 650.74,201.97 630.74,202.15" fill="#151B23" stroke="#262C36" stroke-width="0.6"/>
    <polygon points="610.74,202.32 630.74,202.15 620.89,219.56 600.89,219.73" fill="#151B23" stroke="#262C36" stroke-width="0.6"/>
    <polygon points="580.89,219.9 600.89,219.73 591.04,237.14 571.04,237.31" fill="#151B23" stroke="#262C36" stroke-width="0.6"/>
    <polygon points="779.97,114.24 799.97,114.07 790.13,131.47 770.13,131.65" fill="#151B23" stroke="#262C36" stroke-width="0.6"/>
    <polygon points="750.13,131.82 770.13,131.65 760.28,149.05 740.28,149.23" fill="#151B23" stroke="#262C36" stroke-width="0.6"/>
    <polygon points="720.28,149.4 740.28,149.23 730.43,166.64 710.43,166.81" fill="#151B23" stroke="#262C36" stroke-width="0.6"/>
    <polygon points="690.43,166.99 710.43,166.81 700.58,184.22 680.58,184.39" fill="#151B23" stroke="#262C36" stroke-width="0.6"/>
    <polygon points="660.58,184.57 680.58,184.39 670.73,201.8 650.74,201.97" fill="#151B23" stroke="#262C36" stroke-width="0.6"/>
    <polygon points="630.74,202.15 650.74,201.97 640.89,219.38 620.89,219.56" fill="#151B23" stroke="#262C36" stroke-width="0.6"/>
    <polygon points="600.89,219.73 620.89,219.56 611.04,236.96 591.04,237.14" fill="#151B23" stroke="#262C36" stroke-width="0.6"/>
    <polygon points="799.97,114.07 819.97,113.89 810.12,131.3 790.13,131.47" fill="#151B23" stroke="#262C36" stroke-width="0.6"/>
    <polygon points="770.13,131.65 790.13,131.47 780.28,148.88 760.28,149.05" fill="#151B23" stroke="#262C36" stroke-width="0.6"/>
    <polygon points="740.28,149.23 760.28,149.05 750.43,166.46 730.43,166.64" fill="#151B23" stroke="#262C36" stroke-width="0.6"/>
    <polygon points="710.43,166.81 730.43,166.64 720.58,184.04 700.58,184.22" fill="#151B23" stroke="#262C36" stroke-width="0.6"/>
    <polygon points="680.58,184.39 700.58,184.22 690.73,201.63 670.73,201.8" fill="#151B23" stroke="#262C36" stroke-width="0.6"/>
    <polygon points="650.74,201.97 670.73,201.8 660.89,219.21 640.89,219.38" fill="#151B23" stroke="#262C36" stroke-width="0.6"/>
    <polygon points="620.89,219.56 640.89,219.38 631.04,236.79 611.04,236.96" fill="#151B23" stroke="#262C36" stroke-width="0.6"/>
    <polygon points="819.97,113.89 839.97,113.72 830.12,131.12 810.12,131.3" fill="#151B23" stroke="#262C36" stroke-width="0.6"/>
    <polygon points="760.28,149.05 780.28,148.88 770.43,166.29 750.43,166.46" fill="#151B23" stroke="#262C36" stroke-width="0.6"/>
    <polygon points="730.43,166.64 750.43,166.46 740.58,183.87 720.58,184.04" fill="#151B23" stroke="#262C36" stroke-width="0.6"/>
    <polygon points="700.58,184.22 720.58,184.04 710.73,201.45 690.73,201.63" fill="#151B23" stroke="#262C36" stroke-width="0.6"/>
    <polygon points="670.73,201.8 690.73,201.63 680.89,219.03 660.89,219.21" fill="#151B23" stroke="#262C36" stroke-width="0.6"/>
    <polygon points="640.89,219.38 660.89,219.21 651.04,236.61 631.04,236.79" fill="#151B23" stroke="#262C36" stroke-width="0.6"/>
    <polygon points="780.28,148.88 800.28,148.71 790.43,166.11 770.43,166.29" fill="#151B23" stroke="#262C36" stroke-width="0.6"/>
    <polygon points="750.43,166.46 770.43,166.29 760.58,183.69 740.58,183.87" fill="#151B23" stroke="#262C36" stroke-width="0.6"/>
    <polygon points="720.58,184.04 740.58,183.87 730.73,201.28 710.73,201.45" fill="#151B23" stroke="#262C36" stroke-width="0.6"/>
    <polygon points="690.73,201.63 710.73,201.45 700.88,218.86 680.89,219.03" fill="#151B23" stroke="#262C36" stroke-width="0.6"/>
    <polygon points="660.89,219.21 680.89,219.03 671.04,236.44 651.04,236.61" fill="#151B23" stroke="#262C36" stroke-width="0.6"/>
    <polygon points="770.43,166.29 790.43,166.11 780.58,183.52 760.58,183.69" fill="#151B23" stroke="#262C36" stroke-width="0.6"/>
    <polygon points="740.58,183.87 760.58,183.69 750.73,201.1 730.73,201.28" fill="#151B23" stroke="#262C36" stroke-width="0.6"/>
    <polygon points="710.73,201.45 730.73,201.28 720.88,218.68 700.88,218.86" fill="#151B23" stroke="#262C36" stroke-width="0.6"/>
    <polygon points="680.89,219.03 700.88,218.86 691.04,236.26 671.04,236.44" fill="#151B23" stroke="#262C36" stroke-width="0.6"/>
    <polygon points="790.43,166.11 810.43,165.94 800.58,183.35 780.58,183.52" fill="#151B23" stroke="#262C36" stroke-width="0.6"/>
    <polygon points="730.73,201.28 750.73,201.1 740.88,218.51 720.88,218.68" fill="#151B23" stroke="#262C36" stroke-width="0.6"/>
    <polygon points="700.88,218.86 720.88,218.68 711.04,236.09 691.04,236.26" fill="#151B23" stroke="#262C36" stroke-width="0.6"/>
    <polygon points="810.43,165.94 830.43,165.76 820.58,183.17 800.58,183.35" fill="#151B23" stroke="#262C36" stroke-width="0.6"/>
    <polygon points="780.58,183.52 800.58,183.35 790.73,200.75 770.73,200.93" fill="#151B23" stroke="#262C36" stroke-width="0.6"/>
    <polygon points="720.88,218.68 740.88,218.51 731.03,235.92 711.04,236.09" fill="#151B23" stroke="#262C36" stroke-width="0.6"/>
    <polygon points="830.43,165.76 850.43,165.59 840.58,183 820.58,183.17" fill="#151B23" stroke="#262C36" stroke-width="0.6"/>
    <polygon points="770.73,200.93 790.73,200.75 780.88,218.16 760.88,218.33" fill="#151B23" stroke="#262C36" stroke-width="0.6"/>
    <polygon points="740.88,218.51 760.88,218.33 751.03,235.74 731.03,235.92" fill="#151B23" stroke="#262C36" stroke-width="0.6"/>
    <polygon points="850.43,165.59 870.42,165.41 860.58,182.82 840.58,183" fill="#151B23" stroke="#262C36" stroke-width="0.6"/>
    <polygon points="840.58,183 860.58,182.82 850.73,200.23 830.73,200.4" fill="#151B23" stroke="#262C36" stroke-width="0.6"/>
    <polygon points="810.73,200.58 830.73,200.4 820.88,217.81 800.88,217.99" fill="#151B23" stroke="#262C36" stroke-width="0.6"/>
    <polygon points="930.42,164.89 950.42,164.72 940.57,182.12 920.57,182.3" fill="#151B23" stroke="#262C36" stroke-width="0.6"/>
    <polygon points="840.88,217.64 860.88,217.46 851.03,234.87 831.03,235.04" fill="#151B23" stroke="#262C36" stroke-width="0.6"/>
    <polygon points="1010.12,129.55 1030.12,129.38 1020.27,146.79 1000.27,146.96" fill="#151B23" stroke="#262C36" stroke-width="0.6"/>
    <polygon points="980.27,147.13 1000.27,146.96 990.42,164.37 970.42,164.54" fill="#151B23" stroke="#262C36" stroke-width="0.6"/>
    <polygon points="950.42,164.72 970.42,164.54 960.57,181.95 940.57,182.12" fill="#151B23" stroke="#262C36" stroke-width="0.6"/>
    <polygon points="920.57,182.3 940.57,182.12 930.72,199.53 910.73,199.71" fill="#151B23" stroke="#262C36" stroke-width="0.6"/>
    <polygon points="890.73,199.88 910.73,199.71 900.88,217.11 880.88,217.29" fill="#151B23" stroke="#262C36" stroke-width="0.6"/>
    <polygon points="1030.12,129.38 1050.12,129.2 1040.27,146.61 1020.27,146.79" fill="#151B23" stroke="#262C36" stroke-width="0.6"/>
    <polygon points="1000.27,146.96 1020.27,146.79 1010.42,164.19 990.42,164.37" fill="#151B23" stroke="#262C36" stroke-width="0.6"/>
    <polygon points="1050.12,129.2 1070.11,129.03 1060.27,146.44 1040.27,146.61" fill="#151B23" stroke="#262C36" stroke-width="0.6"/>
    <polygon points="990.42,164.37 1010.42,164.19 1000.57,181.6 980.57,181.77" fill="#151B23" stroke="#262C36" stroke-width="0.6"/>
    <polygon points="1070.11,129.03 1090.11,128.86 1080.27,146.26 1060.27,146.44" fill="#151B23" stroke="#262C36" stroke-width="0.6"/>
    <polygon points="1040.27,146.61 1060.27,146.44 1050.42,163.84 1030.42,164.02" fill="#151B23" stroke="#262C36" stroke-width="0.6"/>
    <polygon points="1010.42,164.19 1030.42,164.02 1020.57,181.43 1000.57,181.6" fill="#151B23" stroke="#262C36" stroke-width="0.6"/>
    <polygon points="980.57,181.77 1000.57,181.6 990.72,199.01 970.72,199.18" fill="#151B23" stroke="#262C36" stroke-width="0.6"/>
    <polygon points="1090.11,128.86 1110.11,128.68 1100.26,146.09 1080.27,146.26" fill="#151B23" stroke="#262C36" stroke-width="0.6"/>
    <polygon points="1060.27,146.44 1080.27,146.26 1070.42,163.67 1050.42,163.84" fill="#151B23" stroke="#262C36" stroke-width="0.6"/>
    <polygon points="1030.42,164.02 1050.42,163.84 1040.57,181.25 1020.57,181.43" fill="#151B23" stroke="#262C36" stroke-width="0.6"/>
    <polygon points="1000.57,181.6 1020.57,181.43 1010.72,198.83 990.72,199.01" fill="#151B23" stroke="#262C36" stroke-width="0.6"/>
    <polygon points="1110.11,128.68 1130.11,128.51 1120.26,145.91 1100.26,146.09" fill="#151B23" stroke="#262C36" stroke-width="0.6"/>
    <polygon points="1080.27,146.26 1100.26,146.09 1090.42,163.49 1070.42,163.67" fill="#151B23" stroke="#262C36" stroke-width="0.6"/>
    <polygon points="1050.42,163.84 1070.42,163.67 1060.57,181.08 1040.57,181.25" fill="#151B23" stroke="#262C36" stroke-width="0.6"/>
    <polygon points="1020.57,181.43 1040.57,181.25 1030.72,198.66 1010.72,198.83" fill="#151B23" stroke="#262C36" stroke-width="0.6"/>
    <polygon points="990.72,199.01 1010.72,198.83 1000.87,216.24 980.87,216.41" fill="#151B23" stroke="#262C36" stroke-width="0.6"/>
    <polygon points="960.87,216.59 980.87,216.41 971.03,233.82 951.03,234" fill="#151B23" stroke="#262C36" stroke-width="0.6"/>
    <polygon points="1159.96,110.92 1179.96,110.75 1170.11,128.16 1150.11,128.33" fill="#151B23" stroke="#262C36" stroke-width="0.6"/>
    <polygon points="1130.11,128.51 1150.11,128.33 1140.26,145.74 1120.26,145.91" fill="#151B23" stroke="#262C36" stroke-width="0.6"/>
    <polygon points="1100.26,146.09 1120.26,145.91 1110.42,163.32 1090.42,163.49" fill="#151B23" stroke="#262C36" stroke-width="0.6"/>
    <polygon points="1070.42,163.67 1090.42,163.49 1080.57,180.9 1060.57,181.08" fill="#151B23" stroke="#262C36" stroke-width="0.6"/>
    <polygon points="1040.57,181.25 1060.57,181.08 1050.72,198.48 1030.72,198.66" fill="#151B23" stroke="#262C36" stroke-width="0.6"/>
    <polygon points="1010.72,198.83 1030.72,198.66 1020.87,216.07 1000.87,216.24" fill="#151B23" stroke="#262C36" stroke-width="0.6"/>
    <polygon points="980.87,216.41 1000.87,216.24 991.02,233.65 971.03,233.82" fill="#151B23" stroke="#262C36" stroke-width="0.6"/>
    <polygon points="1150.11,128.33 1170.11,128.16 1160.26,145.56 1140.26,145.74" fill="#151B23" stroke="#262C36" stroke-width="0.6"/>
    <polygon points="1120.26,145.91 1140.26,145.74 1130.41,163.15 1110.42,163.32" fill="#151B23" stroke="#262C36" stroke-width="0.6"/>
    <polygon points="1090.42,163.49 1110.42,163.32 1100.57,180.73 1080.57,180.9" fill="#151B23" stroke="#262C36" stroke-width="0.6"/>
    <polygon points="1060.57,181.08 1080.57,180.9 1070.72,198.31 1050.72,198.48" fill="#151B23" stroke="#262C36" stroke-width="0.6"/>
    <polygon points="1030.72,198.66 1050.72,198.48 1040.87,215.89 1020.87,216.07" fill="#151B23" stroke="#262C36" stroke-width="0.6"/>
    <polygon points="1000.87,216.24 1020.87,216.07 1011.02,233.47 991.02,233.65" fill="#151B23" stroke="#262C36" stroke-width="0.6"/>
    <polygon points="1140.26,145.74 1160.26,145.56 1150.41,162.97 1130.41,163.15" fill="#151B23" stroke="#262C36" stroke-width="0.6"/>
    <polygon points="1110.42,163.32 1130.41,163.15 1120.57,180.55 1100.57,180.73" fill="#151B23" stroke="#262C36" stroke-width="0.6"/>
    <polygon points="1080.57,180.9 1100.57,180.73 1090.72,198.13 1070.72,198.31" fill="#151B23" stroke="#262C36" stroke-width="0.6"/>
    <polygon points="1050.72,198.48 1070.72,198.31 1060.87,215.72 1040.87,215.89" fill="#151B23" stroke="#262C36" stroke-width="0.6"/>
    <polygon points="1020.87,216.07 1040.87,215.89 1031.02,233.3 1011.02,233.47" fill="#151B23" stroke="#262C36" stroke-width="0.6"/>
    <polygon points="1130.41,163.15 1150.41,162.97 1140.57,180.38 1120.57,180.55" fill="#151B23" stroke="#262C36" stroke-width="0.6"/>
    <polygon points="1100.57,180.73 1120.57,180.55 1110.72,197.96 1090.72,198.13" fill="#151B23" stroke="#262C36" stroke-width="0.6"/>
    <polygon points="1070.72,198.31 1090.72,198.13 1080.87,215.54 1060.87,215.72" fill="#151B23" stroke="#262C36" stroke-width="0.6"/>
    <polygon points="1040.87,215.89 1060.87,215.72 1051.02,233.12 1031.02,233.3" fill="#151B23" stroke="#262C36" stroke-width="0.6"/>
    <polygon points="1120.57,180.55 1140.57,180.38 1130.72,197.79 1110.72,197.96" fill="#151B23" stroke="#262C36" stroke-width="0.6"/>
    <polygon points="1090.72,198.13 1110.72,197.96 1100.87,215.37 1080.87,215.54" fill="#151B23" stroke="#262C36" stroke-width="0.6"/>
    <polygon points="1060.87,215.72 1080.87,215.54 1071.02,232.95 1051.02,233.12" fill="#151B23" stroke="#262C36" stroke-width="0.6"/>
    <polygon points="1110.72,197.96 1130.72,197.79 1120.87,215.19 1100.87,215.37" fill="#151B23" stroke="#262C36" stroke-width="0.6"/>
    <polygon points="1080.87,215.54 1100.87,215.37 1091.02,232.77 1071.02,232.95" fill="#151B23" stroke="#262C36" stroke-width="0.6"/>
    <polygon points="1100.87,215.37 1120.87,215.19 1111.02,232.6 1091.02,232.77" fill="#151B23" stroke="#262C36" stroke-width="0.6"/>
    <polygon points="90.76,206.86 80.91,224.27 72.79,210.48 82.64,193.07" fill="rgb(101, 151, 109)" stroke="#404040" stroke-width="0.6"/>
<polygon points="110.76,206.69 100.91,224.09 92.79,210.31 102.64,192.9" fill="rgb(128, 192, 139)" stroke="#333333" stroke-width="0.6"/>
<polygon points="100.91,224.09 80.91,224.27 72.79,210.48 92.79,210.31" fill="rgb(112, 168, 121)" stroke="#404040" stroke-width="0.5"/>
<polygon points="82.64,193.07 102.64,192.9 92.79,210.31 72.79,210.48" fill="rgb(155, 233, 168)" stroke="#2a2a2a" stroke-width="0.8"/>
    <polygon points="450.74,203.72 440.89,221.13 432.77,207.34 442.62,189.93" fill="rgb(101, 151, 109)" stroke="#404040" stroke-width="0.6"/>
<polygon points="470.74,203.54 460.89,220.95 452.77,207.17 462.62,189.76" fill="rgb(128, 192, 139)" stroke="#333333" stroke-width="0.6"/>
<polygon points="460.89,220.95 440.89,221.13 432.77,207.34 452.77,207.17" fill="rgb(112, 168, 121)" stroke="#404040" stroke-width="0.5"/>
<polygon points="442.62,189.93 462.62,189.76 452.77,207.17 432.77,207.34" fill="rgb(155, 233, 168)" stroke="#2a2a2a" stroke-width="0.8"/>
    <polygon points="790.13,131.47 780.28,148.88 766.07,124.75 775.91,107.35" fill="rgb(42, 127, 64)" stroke="#404040" stroke-width="0.6"/>
<polygon points="810.12,131.3 800.28,148.71 786.07,124.58 795.91,107.17" fill="rgb(51, 157, 79)" stroke="#333333" stroke-width="0.6"/>
<polygon points="800.28,148.71 780.28,148.88 766.07,124.75 786.07,124.58" fill="rgb(45, 138, 70)" stroke="#404040" stroke-width="0.5"/>
<polygon points="775.91,107.35 795.91,107.17 786.07,124.58 766.07,124.75" fill="rgb(64, 196, 99)" stroke="#2a2a2a" stroke-width="0.8"/>
    <polygon points="839.97,113.72 830.12,131.12 822,117.34 831.85,99.93" fill="rgb(98, 147, 106)" stroke="#404040" stroke-width="0.6"/>
<polygon points="859.97,113.54 850.12,130.95 842,117.16 851.85,99.76" fill="rgb(124, 186, 134)" stroke="#333333" stroke-width="0.6"/>
<polygon points="850.12,130.95 830.12,131.12 822,117.34 842,117.16" fill="rgb(109, 164, 118)" stroke="#404040" stroke-width="0.5"/>
<polygon points="831.85,99.93 851.85,99.76 842,117.16 822,117.34" fill="rgb(155, 233, 168)" stroke="#2a2a2a" stroke-width="0.8"/>
    <polygon points="810.12,131.3 800.28,148.71 779.97,114.24 789.82,96.83" fill="rgb(41, 126, 64)" stroke="#404040" stroke-width="0.6"/>
<polygon points="830.12,131.12 820.28,148.53 799.97,114.07 809.82,96.66" fill="rgb(48, 147, 74)" stroke="#333333" stroke-width="0.6"/>
<polygon points="820.28,148.53 800.28,148.71 779.97,114.24 799.97,114.07" fill="rgb(43, 132, 67)" stroke="#404040" stroke-width="0.5"/>
<polygon points="789.82,96.83 809.82,96.66 799.97,114.07 779.97,114.24" fill="rgb(64, 195, 99)" stroke="#2a2a2a" stroke-width="0.8"/>
    <polygon points="859.97,113.54 850.12,130.95 842,117.16 851.85,99.76" fill="rgb(83, 124, 90)" stroke="#4a4a4a" stroke-width="0.6"/>
<polygon points="879.97,113.37 870.12,130.77 862,116.99 871.85,99.58" fill="rgb(122, 184, 133)" stroke="#333333" stroke-width="0.6"/>
<polygon points="870.12,130.77 850.12,130.95 842,117.16 862,116.99" fill="rgb(108, 163, 117)" stroke="#404040" stroke-width="0.5"/>
<polygon points="851.85,99.76 871.85,99.58 862,116.99 842,117.16" fill="rgb(155, 233, 168)" stroke="#2a2a2a" stroke-width="0.8"/>
    <polygon points="800.28,148.71 790.43,166.11 776.22,141.99 786.07,124.58" fill="rgb(41, 126, 64)" stroke="#404040" stroke-width="0.6"/>
<polygon points="820.28,148.53 810.43,165.94 796.22,141.81 806.06,124.41" fill="rgb(47, 142, 72)" stroke="#333333" stroke-width="0.6"/>
<polygon points="810.43,165.94 790.43,166.11 776.22,141.99 796.22,141.81" fill="rgb(42, 130, 65)" stroke="#404040" stroke-width="0.5"/>
<polygon points="786.07,124.58 806.06,124.41 796.22,141.81 776.22,141.99" fill="rgb(57, 174, 88)" stroke="#2a2a2a" stroke-width="0.8"/>
    <polygon points="830.12,131.12 820.28,148.53 702.53,-51.37 712.38,-68.77" fill="rgb(8, 44, 27)" stroke="#404040" stroke-width="0.6"/>
<polygon points="850.12,130.95 840.27,148.36 722.53,-51.54 732.37,-68.95" fill="rgb(11, 56, 34)" stroke="#333333" stroke-width="0.6"/>
<polygon points="840.27,148.36 820.28,148.53 702.53,-51.37 722.53,-51.54" fill="rgb(9, 49, 29)" stroke="#404040" stroke-width="0.5"/>
<polygon points="712.38,-68.77 732.37,-68.95 722.53,-51.54 702.53,-51.37" fill="rgb(13, 68, 41)" stroke="#2a2a2a" stroke-width="0.8"/>
    <polygon points="760.58,183.69 750.73,201.1 742.61,187.32 752.46,169.91" fill="rgb(101, 151, 109)" stroke="#404040" stroke-width="0.6"/>
<polygon points="780.58,183.52 770.73,200.93 762.61,187.14 772.46,169.73" fill="rgb(128, 192, 139)" stroke="#333333" stroke-width="0.6"/>
<polygon points="770.73,200.93 750.73,201.1 742.61,187.32 762.61,187.14" fill="rgb(112, 168, 121)" stroke="#404040" stroke-width="0.5"/>
<polygon points="752.46,169.91 772.46,169.73 762.61,187.14 742.61,187.32" fill="rgb(155, 233, 168)" stroke="#2a2a2a" stroke-width="0.8"/>
    <polygon points="879.97,113.37 870.12,130.77 855.91,106.65 865.76,89.24" fill="rgb(41, 124, 63)" stroke="#404040" stroke-width="0.6"/>
<polygon points="899.97,113.19 890.12,130.6 875.91,106.47 885.76,89.07" fill="rgb(50, 154, 78)" stroke="#333333" stroke-width="0.6"/>
<polygon points="890.12,130.6 870.12,130.77 855.91,106.65 875.91,106.47" fill="rgb(45, 137, 69)" stroke="#404040" stroke-width="0.5"/>
<polygon points="865.76,89.24 885.76,89.07 875.91,106.47 855.91,106.65" fill="rgb(64, 196, 99)" stroke="#2a2a2a" stroke-width="0.8"/>
    <polygon points="820.28,148.53 810.43,165.94 796.22,141.81 806.06,124.41" fill="rgb(40, 124, 62)" stroke="#404040" stroke-width="0.6"/>
<polygon points="840.27,148.36 830.43,165.76 816.22,141.64 826.06,124.23" fill="rgb(51, 157, 79)" stroke="#333333" stroke-width="0.6"/>
<polygon points="830.43,165.76 810.43,165.94 796.22,141.81 816.22,141.64" fill="rgb(45, 138, 70)" stroke="#404040" stroke-width="0.5"/>
<polygon points="806.06,124.41 826.06,124.23 816.22,141.64 796.22,141.81" fill="rgb(57, 173, 87)" stroke="#2a2a2a" stroke-width="0.8"/>
    <polygon points="850.12,130.95 840.27,148.36 819.97,113.89 829.82,96.48" fill="rgb(37, 115, 58)" stroke="#404040" stroke-width="0.6"/>
<polygon points="870.12,130.77 860.27,148.18 839.97,113.72 849.82,96.31" fill="rgb(51, 157, 79)" stroke="#333333" stroke-width="0.6"/>
<polygon points="860.27,148.18 840.27,148.36 819.97,113.89 839.97,113.72" fill="rgb(45, 138, 70)" stroke="#404040" stroke-width="0.5"/>
<polygon points="829.82,96.48 849.82,96.31 839.97,113.72 819.97,113.89" fill="rgb(63, 193, 98)" stroke="#2a2a2a" stroke-width="0.8"/>
    <polygon points="750.73,201.1 740.88,218.51 732.76,204.72 742.61,187.32" fill="rgb(101, 151, 109)" stroke="#404040" stroke-width="0.6"/>
<polygon points="770.73,200.93 760.88,218.33 752.76,204.55 762.61,187.14" fill="rgb(124, 186, 134)" stroke="#333333" stroke-width="0.6"/>
<polygon points="760.88,218.33 740.88,218.51 732.76,204.72 752.76,204.55" fill="rgb(109, 164, 118)" stroke="#404040" stroke-width="0.5"/>
<polygon points="742.61,187.32 762.61,187.14 752.76,204.55 732.76,204.72" fill="rgb(154, 231, 167)" stroke="#2a2a2a" stroke-width="0.8"/>
    <polygon points="899.97,113.19 890.12,130.6 875.91,106.47 885.76,89.07" fill="rgb(40, 124, 62)" stroke="#404040" stroke-width="0.6"/>
<polygon points="919.97,113.02 910.12,130.43 895.91,106.3 905.76,88.89" fill="rgb(51, 157, 79)" stroke="#333333" stroke-width="0.6"/>
<polygon points="910.12,130.43 890.12,130.6 875.91,106.47 895.91,106.3" fill="rgb(45, 138, 70)" stroke="#404040" stroke-width="0.5"/>
<polygon points="885.76,89.07 905.76,88.89 895.91,106.3 875.91,106.47" fill="rgb(64, 196, 99)" stroke="#2a2a2a" stroke-width="0.8"/>
    <polygon points="840.27,148.36 830.43,165.76 816.22,141.64 826.06,124.23" fill="rgb(36, 111, 56)" stroke="#4a4a4a" stroke-width="0.6"/>
<polygon points="860.27,148.18 850.43,165.59 836.21,141.46 846.06,124.06" fill="rgb(51, 157, 79)" stroke="#333333" stroke-width="0.6"/>
<polygon points="850.43,165.59 830.43,165.76 816.22,141.64 836.21,141.46" fill="rgb(45, 138, 70)" stroke="#404040" stroke-width="0.5"/>
<polygon points="826.06,124.23 846.06,124.06 836.21,141.46 816.22,141.64" fill="rgb(57, 173, 87)" stroke="#2a2a2a" stroke-width="0.8"/>
    <polygon points="870.12,130.77 860.27,148.18 839.97,113.72 849.82,96.31" fill="rgb(40, 124, 63)" stroke="#404040" stroke-width="0.6"/>
<polygon points="890.12,130.6 880.27,148.01 859.97,113.54 869.82,96.14" fill="rgb(51, 156, 79)" stroke="#333333" stroke-width="0.6"/>
<polygon points="880.27,148.01 860.27,148.18 839.97,113.72 859.97,113.54" fill="rgb(45, 137, 69)" stroke="#404040" stroke-width="0.5"/>
<polygon points="849.82,96.31 869.82,96.14 859.97,113.54 839.97,113.72" fill="rgb(63, 193, 97)" stroke="#2a2a2a" stroke-width="0.8"/>
    <polygon points="800.58,183.35 790.73,200.75 782.61,186.97 792.46,169.56" fill="rgb(101, 151, 109)" stroke="#404040" stroke-width="0.6"/>
<polygon points="820.58,183.17 810.73,200.58 802.61,186.79 812.46,169.38" fill="rgb(127, 191, 137)" stroke="#333333" stroke-width="0.6"/>
<polygon points="810.73,200.58 790.73,200.75 782.61,186.97 802.61,186.79" fill="rgb(111, 167, 120)" stroke="#404040" stroke-width="0.5"/>
<polygon points="792.46,169.56 812.46,169.38 802.61,186.79 782.61,186.97" fill="rgb(155, 233, 168)" stroke="#2a2a2a" stroke-width="0.8"/>
    <polygon points="919.97,113.02 910.12,130.43 895.91,106.3 905.76,88.89" fill="rgb(40, 121, 61)" stroke="#404040" stroke-width="0.6"/>
<polygon points="939.97,112.84 930.12,130.25 915.91,106.13 925.76,88.72" fill="rgb(50, 153, 78)" stroke="#333333" stroke-width="0.6"/>
<polygon points="930.12,130.25 910.12,130.43 895.91,106.3 915.91,106.13" fill="rgb(44, 136, 69)" stroke="#404040" stroke-width="0.5"/>
<polygon points="905.76,88.89 925.76,88.72 915.91,106.13 895.91,106.3" fill="rgb(64, 196, 99)" stroke="#2a2a2a" stroke-width="0.8"/>
    <polygon points="860.27,148.18 850.43,165.59 836.21,141.46 846.06,124.06" fill="rgb(40, 124, 62)" stroke="#404040" stroke-width="0.6"/>
<polygon points="880.27,148.01 870.42,165.41 856.21,141.29 866.06,123.88" fill="rgb(50, 154, 78)" stroke="#333333" stroke-width="0.6"/>
<polygon points="870.42,165.41 850.43,165.59 836.21,141.46 856.21,141.29" fill="rgb(45, 137, 69)" stroke="#404040" stroke-width="0.5"/>
<polygon points="846.06,124.06 866.06,123.88 856.21,141.29 836.21,141.46" fill="rgb(60, 185, 93)" stroke="#2a2a2a" stroke-width="0.8"/>
    <polygon points="890.12,130.6 880.27,148.01 841.7,82.52 851.55,65.12" fill="rgb(31, 103, 50)" stroke="#404040" stroke-width="0.6"/>
<polygon points="910.12,130.43 900.27,147.83 861.7,82.35 871.55,64.94" fill="rgb(39, 130, 63)" stroke="#333333" stroke-width="0.6"/>
<polygon points="900.27,147.83 880.27,148.01 841.7,82.52 861.7,82.35" fill="rgb(34, 114, 55)" stroke="#404040" stroke-width="0.5"/>
<polygon points="851.55,65.12 871.55,64.94 861.7,82.35 841.7,82.52" fill="rgb(47, 159, 77)" stroke="#2a2a2a" stroke-width="0.8"/>
    <polygon points="880.27,148.01 870.42,165.41 862.3,151.63 872.15,134.22" fill="rgb(96, 145, 104)" stroke="#404040" stroke-width="0.6"/>
<polygon points="900.27,147.83 890.42,165.24 882.3,151.45 892.15,134.05" fill="rgb(116, 174, 126)" stroke="#333333" stroke-width="0.6"/>
<polygon points="890.42,165.24 870.42,165.41 862.3,151.63 882.3,151.45" fill="rgb(104, 157, 113)" stroke="#404040" stroke-width="0.5"/>
<polygon points="872.15,134.22 892.15,134.05 882.3,151.45 862.3,151.63" fill="rgb(142, 213, 154)" stroke="#2a2a2a" stroke-width="0.8"/>
    <polygon points="820.58,183.17 810.73,200.58 802.61,186.79 812.46,169.38" fill="rgb(99, 149, 107)" stroke="#404040" stroke-width="0.6"/>
<polygon points="840.58,183 830.73,200.4 822.61,186.62 832.46,169.21" fill="rgb(127, 191, 137)" stroke="#333333" stroke-width="0.6"/>
<polygon points="830.73,200.4 810.73,200.58 802.61,186.79 822.61,186.62" fill="rgb(111, 167, 120)" stroke="#404040" stroke-width="0.5"/>
<polygon points="812.46,169.38 832.46,169.21 822.61,186.62 802.61,186.79" fill="rgb(155, 233, 168)" stroke="#2a2a2a" stroke-width="0.8"/>
    <polygon points="790.73,200.75 780.88,218.16 772.76,204.37 782.61,186.97" fill="rgb(97, 146, 105)" stroke="#404040" stroke-width="0.6"/>
<polygon points="810.73,200.58 800.88,217.99 792.76,204.2 802.61,186.79" fill="rgb(126, 189, 136)" stroke="#333333" stroke-width="0.6"/>
<polygon points="800.88,217.99 780.88,218.16 772.76,204.37 792.76,204.2" fill="rgb(110, 166, 120)" stroke="#404040" stroke-width="0.5"/>
<polygon points="782.61,186.97 802.61,186.79 792.76,204.2 772.76,204.37" fill="rgb(153, 230, 166)" stroke="#2a2a2a" stroke-width="0.8"/>
    <polygon points="910.12,130.43 900.27,147.83 879.97,113.37 889.82,95.96" fill="rgb(40, 122, 62)" stroke="#404040" stroke-width="0.6"/>
<polygon points="930.12,130.25 920.27,147.66 899.97,113.19 909.82,95.79" fill="rgb(49, 149, 75)" stroke="#333333" stroke-width="0.6"/>
<polygon points="920.27,147.66 900.27,147.83 879.97,113.37 899.97,113.19" fill="rgb(44, 134, 68)" stroke="#404040" stroke-width="0.5"/>
<polygon points="889.82,95.96 909.82,95.79 899.97,113.19 879.97,113.37" fill="rgb(62, 190, 96)" stroke="#2a2a2a" stroke-width="0.8"/>
    <polygon points="760.88,218.33 751.03,235.74 724.64,190.94 734.49,173.53" fill="rgb(31, 104, 51)" stroke="#404040" stroke-width="0.6"/>
<polygon points="780.88,218.16 771.03,235.57 744.64,190.76 754.49,173.35" fill="rgb(39, 131, 64)" stroke="#333333" stroke-width="0.6"/>
<polygon points="771.03,235.57 751.03,235.74 724.64,190.94 744.64,190.76" fill="rgb(34, 115, 56)" stroke="#404040" stroke-width="0.5"/>
<polygon points="734.49,173.53 754.49,173.35 744.64,190.76 724.64,190.94" fill="rgb(48, 160, 78)" stroke="#2a2a2a" stroke-width="0.8"/>
    <polygon points="939.97,112.84 930.12,130.25 897.64,75.11 907.49,57.7" fill="rgb(31, 103, 50)" stroke="#404040" stroke-width="0.6"/>
<polygon points="959.97,112.67 950.12,130.08 917.64,74.93 927.49,57.53" fill="rgb(39, 131, 63)" stroke="#333333" stroke-width="0.6"/>
<polygon points="950.12,130.08 930.12,130.25 897.64,75.11 917.64,74.93" fill="rgb(34, 115, 56)" stroke="#404040" stroke-width="0.5"/>
<polygon points="907.49,57.7 927.49,57.53 917.64,74.93 897.64,75.11" fill="rgb(48, 161, 78)" stroke="#2a2a2a" stroke-width="0.8"/>
    <polygon points="870.42,165.41 860.58,182.82 852.46,169.04 862.3,151.63" fill="rgb(99, 149, 107)" stroke="#404040" stroke-width="0.6"/>
<polygon points="890.42,165.24 880.58,182.65 872.46,168.86 882.3,151.45" fill="rgb(117, 176, 127)" stroke="#333333" stroke-width="0.6"/>
<polygon points="880.58,182.65 860.58,182.82 852.46,169.04 872.46,168.86" fill="rgb(105, 158, 114)" stroke="#404040" stroke-width="0.5"/>
<polygon points="862.3,151.63 882.3,151.45 872.46,168.86 852.46,169.04" fill="rgb(146, 220, 159)" stroke="#2a2a2a" stroke-width="0.8"/>
    <polygon points="959.97,112.67 950.12,130.08 935.91,105.95 945.76,88.54" fill="rgb(39, 121, 61)" stroke="#404040" stroke-width="0.6"/>
<polygon points="979.97,112.5 970.12,129.9 955.91,105.78 965.76,88.37" fill="rgb(50, 153, 77)" stroke="#333333" stroke-width="0.6"/>
<polygon points="970.12,129.9 950.12,130.08 935.91,105.95 955.91,105.78" fill="rgb(44, 136, 69)" stroke="#404040" stroke-width="0.5"/>
<polygon points="945.76,88.54 965.76,88.37 955.91,105.78 935.91,105.95" fill="rgb(64, 196, 99)" stroke="#2a2a2a" stroke-width="0.8"/>
    <polygon points="780.88,218.16 771.03,235.57 756.82,211.44 766.67,194.03" fill="rgb(41, 124, 63)" stroke="#404040" stroke-width="0.6"/>
<polygon points="800.88,217.99 791.03,235.39 776.82,211.27 786.67,193.86" fill="rgb(53, 161, 81)" stroke="#333333" stroke-width="0.6"/>
<polygon points="791.03,235.39 771.03,235.57 756.82,211.44 776.82,211.27" fill="rgb(46, 141, 71)" stroke="#404040" stroke-width="0.5"/>
<polygon points="766.67,194.03 786.67,193.86 776.82,211.27 756.82,211.44" fill="rgb(64, 195, 99)" stroke="#2a2a2a" stroke-width="0.8"/>
    <polygon points="930.12,130.25 920.27,147.66 893.88,102.85 903.73,85.45" fill="rgb(30, 101, 49)" stroke="#404040" stroke-width="0.6"/>
<polygon points="950.12,130.08 940.27,147.48 913.88,102.68 923.73,85.27" fill="rgb(39, 130, 63)" stroke="#333333" stroke-width="0.6"/>
<polygon points="940.27,147.48 920.27,147.66 893.88,102.85 913.88,102.68" fill="rgb(34, 114, 55)" stroke="#404040" stroke-width="0.5"/>
<polygon points="903.73,85.45 923.73,85.27 913.88,102.68 893.88,102.85" fill="rgb(47, 157, 76)" stroke="#2a2a2a" stroke-width="0.8"/>
    <polygon points="900.27,147.83 890.42,165.24 857.94,110.1 867.79,92.69" fill="rgb(30, 102, 49)" stroke="#404040" stroke-width="0.6"/>
<polygon points="920.27,147.66 910.42,165.07 877.94,109.92 887.79,92.51" fill="rgb(38, 127, 62)" stroke="#333333" stroke-width="0.6"/>
<polygon points="910.42,165.07 890.42,165.24 857.94,110.1 877.94,109.92" fill="rgb(34, 113, 55)" stroke="#404040" stroke-width="0.5"/>
<polygon points="867.79,92.69 887.79,92.51 877.94,109.92 857.94,110.1" fill="rgb(47, 156, 76)" stroke="#2a2a2a" stroke-width="0.8"/>
    <polygon points="860.58,182.82 850.73,200.23 842.61,186.44 852.46,169.04" fill="rgb(100, 150, 108)" stroke="#404040" stroke-width="0.6"/>
<polygon points="880.58,182.65 870.73,200.05 862.61,186.27 872.46,168.86" fill="rgb(120, 181, 130)" stroke="#333333" stroke-width="0.6"/>
<polygon points="870.73,200.05 850.73,200.23 842.61,186.44 862.61,186.27" fill="rgb(107, 161, 116)" stroke="#404040" stroke-width="0.5"/>
<polygon points="852.46,169.04 872.46,168.86 862.61,186.27 842.61,186.44" fill="rgb(151, 226, 163)" stroke="#2a2a2a" stroke-width="0.8"/>
    <polygon points="830.73,200.4 820.88,217.81 812.76,204.02 822.61,186.62" fill="rgb(99, 149, 107)" stroke="#404040" stroke-width="0.6"/>
<polygon points="850.73,200.23 840.88,217.64 832.76,203.85 842.61,186.44" fill="rgb(125, 187, 135)" stroke="#333333" stroke-width="0.6"/>
<polygon points="840.88,217.64 820.88,217.81 812.76,204.02 832.76,203.85" fill="rgb(110, 165, 119)" stroke="#404040" stroke-width="0.5"/>
<polygon points="822.61,186.62 842.61,186.44 832.76,203.85 812.76,204.02" fill="rgb(153, 230, 166)" stroke="#2a2a2a" stroke-width="0.8"/>
    <polygon points="800.88,217.99 791.03,235.39 782.91,221.61 792.76,204.2" fill="rgb(98, 147, 106)" stroke="#404040" stroke-width="0.6"/>
<polygon points="820.88,217.81 811.03,235.22 802.91,221.43 812.76,204.02" fill="rgb(126, 189, 136)" stroke="#333333" stroke-width="0.6"/>
<polygon points="811.03,235.22 791.03,235.39 782.91,221.61 802.91,221.43" fill="rgb(110, 166, 120)" stroke="#404040" stroke-width="0.5"/>
<polygon points="792.76,204.2 812.76,204.02 802.91,221.43 782.91,221.61" fill="rgb(153, 230, 166)" stroke="#2a2a2a" stroke-width="0.8"/>
    <polygon points="979.97,112.5 970.12,129.9 949.82,95.44 959.67,78.03" fill="rgb(41, 125, 63)" stroke="#404040" stroke-width="0.6"/>
<polygon points="999.97,112.32 990.12,129.73 969.82,95.26 979.66,77.86" fill="rgb(46, 141, 71)" stroke="#333333" stroke-width="0.6"/>
<polygon points="990.12,129.73 970.12,129.9 949.82,95.44 969.82,95.26" fill="rgb(42, 129, 65)" stroke="#404040" stroke-width="0.5"/>
<polygon points="959.67,78.03 979.66,77.86 969.82,95.26 949.82,95.44" fill="rgb(64, 196, 99)" stroke="#2a2a2a" stroke-width="0.8"/>
    <polygon points="950.12,130.08 940.27,147.48 919.97,113.02 929.82,95.61" fill="rgb(38, 117, 59)" stroke="#404040" stroke-width="0.6"/>
<polygon points="970.12,129.9 960.27,147.31 939.97,112.84 949.82,95.44" fill="rgb(50, 154, 78)" stroke="#333333" stroke-width="0.6"/>
<polygon points="960.27,147.31 940.27,147.48 919.97,113.02 939.97,112.84" fill="rgb(45, 137, 69)" stroke="#404040" stroke-width="0.5"/>
<polygon points="929.82,95.61 949.82,95.44 939.97,112.84 919.97,113.02" fill="rgb(62, 189, 96)" stroke="#2a2a2a" stroke-width="0.8"/>
    <polygon points="890.42,165.24 880.58,182.65 860.27,148.18 870.12,130.77" fill="rgb(41, 126, 63)" stroke="#404040" stroke-width="0.6"/>
<polygon points="910.42,165.07 900.57,182.47 880.27,148.01 890.12,130.6" fill="rgb(50, 153, 78)" stroke="#333333" stroke-width="0.6"/>
<polygon points="900.57,182.47 880.58,182.65 860.27,148.18 880.27,148.01" fill="rgb(44, 136, 69)" stroke="#404040" stroke-width="0.5"/>
<polygon points="870.12,130.77 890.12,130.6 880.27,148.01 860.27,148.18" fill="rgb(61, 186, 94)" stroke="#2a2a2a" stroke-width="0.8"/>
    <polygon points="920.27,147.66 910.42,165.07 853.58,68.56 863.43,51.16" fill="rgb(21, 70, 36)" stroke="#404040" stroke-width="0.6"/>
<polygon points="940.27,147.48 930.42,164.89 873.58,68.39 883.43,50.98" fill="rgb(27, 90, 47)" stroke="#333333" stroke-width="0.6"/>
<polygon points="930.42,164.89 910.42,165.07 853.58,68.56 873.58,68.39" fill="rgb(24, 79, 41)" stroke="#404040" stroke-width="0.5"/>
<polygon points="863.43,51.16 883.43,50.98 873.58,68.39 853.58,68.56" fill="rgb(33, 108, 56)" stroke="#2a2a2a" stroke-width="0.8"/>
    <polygon points="940.27,147.48 930.42,164.89 922.3,151.1 932.15,133.7" fill="rgb(87, 131, 95)" stroke="#4a4a4a" stroke-width="0.6"/>
<polygon points="960.27,147.31 950.42,164.72 942.3,150.93 952.15,133.52" fill="rgb(119, 179, 129)" stroke="#333333" stroke-width="0.6"/>
<polygon points="950.42,164.72 930.42,164.89 922.3,151.1 942.3,150.93" fill="rgb(106, 160, 115)" stroke="#404040" stroke-width="0.5"/>
<polygon points="932.15,133.7 952.15,133.52 942.3,150.93 922.3,151.1" fill="rgb(140, 210, 152)" stroke="#2a2a2a" stroke-width="0.8"/>
    <polygon points="820.88,217.81 811.03,235.22 802.91,221.43 812.76,204.02" fill="rgb(100, 150, 108)" stroke="#404040" stroke-width="0.6"/>
<polygon points="840.88,217.64 831.03,235.04 822.91,221.26 832.76,203.85" fill="rgb(126, 189, 136)" stroke="#333333" stroke-width="0.6"/>
<polygon points="831.03,235.04 811.03,235.22 802.91,221.43 822.91,221.26" fill="rgb(110, 166, 120)" stroke="#404040" stroke-width="0.5"/>
<polygon points="812.76,204.02 832.76,203.85 822.91,221.26 802.91,221.43" fill="rgb(152, 228, 164)" stroke="#2a2a2a" stroke-width="0.8"/>
    <polygon points="910.42,165.07 900.57,182.47 886.36,158.35 896.21,140.94" fill="rgb(39, 120, 60)" stroke="#404040" stroke-width="0.6"/>
<polygon points="930.42,164.89 920.57,182.3 906.36,158.17 916.21,140.77" fill="rgb(53, 161, 81)" stroke="#333333" stroke-width="0.6"/>
<polygon points="920.57,182.3 900.57,182.47 886.36,158.35 906.36,158.17" fill="rgb(46, 141, 71)" stroke="#404040" stroke-width="0.5"/>
<polygon points="896.21,140.94 916.21,140.77 906.36,158.17 886.36,158.35" fill="rgb(60, 182, 92)" stroke="#2a2a2a" stroke-width="0.8"/>
    <polygon points="880.58,182.65 870.73,200.05 856.52,175.93 866.36,158.52" fill="rgb(41, 124, 63)" stroke="#404040" stroke-width="0.6"/>
<polygon points="900.57,182.47 890.73,199.88 876.52,175.75 886.36,158.35" fill="rgb(52, 159, 80)" stroke="#333333" stroke-width="0.6"/>
<polygon points="890.73,199.88 870.73,200.05 856.52,175.93 876.52,175.75" fill="rgb(46, 139, 70)" stroke="#404040" stroke-width="0.5"/>
<polygon points="866.36,158.52 886.36,158.35 876.52,175.75 856.52,175.93" fill="rgb(62, 191, 96)" stroke="#2a2a2a" stroke-width="0.8"/>
    <polygon points="850.73,200.23 840.88,217.64 826.67,193.51 836.52,176.1" fill="rgb(41, 126, 64)" stroke="#404040" stroke-width="0.6"/>
<polygon points="870.73,200.05 860.88,217.46 846.67,193.34 856.52,175.93" fill="rgb(50, 153, 77)" stroke="#333333" stroke-width="0.6"/>
<polygon points="860.88,217.46 840.88,217.64 826.67,193.51 846.67,193.34" fill="rgb(44, 136, 69)" stroke="#404040" stroke-width="0.5"/>
<polygon points="836.52,176.1 856.52,175.93 846.67,193.34 826.67,193.51" fill="rgb(63, 193, 98)" stroke="#2a2a2a" stroke-width="0.8"/>
    <polygon points="970.12,129.9 960.27,147.31 915.61,71.49 925.46,54.08" fill="rgb(21, 71, 37)" stroke="#404040" stroke-width="0.6"/>
<polygon points="990.12,129.73 980.27,147.13 935.61,71.31 945.45,53.9" fill="rgb(25, 85, 44)" stroke="#333333" stroke-width="0.6"/>
<polygon points="980.27,147.13 960.27,147.31 915.61,71.49 935.61,71.31" fill="rgb(23, 76, 39)" stroke="#404040" stroke-width="0.5"/>
<polygon points="925.46,54.08 945.45,53.9 935.61,71.31 915.61,71.49" fill="rgb(32, 107, 55)" stroke="#2a2a2a" stroke-width="0.8"/>
    <polygon points="999.97,112.32 990.12,129.73 921.09,12.55 930.94,-4.86" fill="rgb(21, 70, 36)" stroke="#404040" stroke-width="0.6"/>
<polygon points="1019.97,112.15 1010.12,129.55 941.09,12.37 950.94,-5.04" fill="rgb(27, 90, 47)" stroke="#333333" stroke-width="0.6"/>
<polygon points="1010.12,129.55 990.12,129.73 921.09,12.55 941.09,12.37" fill="rgb(24, 79, 41)" stroke="#404040" stroke-width="0.5"/>
<polygon points="930.94,-4.86 950.94,-5.04 941.09,12.37 921.09,12.55" fill="rgb(33, 110, 57)" stroke="#2a2a2a" stroke-width="0.8"/>
    <polygon points="960.27,147.31 950.42,164.72 942.3,150.93 952.15,133.52" fill="rgb(97, 146, 105)" stroke="#404040" stroke-width="0.6"/>
<polygon points="980.27,147.13 970.42,164.54 962.3,150.76 972.15,133.35" fill="rgb(106, 160, 115)" stroke="#404040" stroke-width="0.6"/>
<polygon points="970.42,164.54 950.42,164.72 942.3,150.93 962.3,150.76" fill="rgb(99, 148, 107)" stroke="#404040" stroke-width="0.5"/>
<polygon points="952.15,133.52 972.15,133.35 962.3,150.76 942.3,150.93" fill="rgb(124, 186, 134)" stroke="#333333" stroke-width="0.8"/>
    <polygon points="900.57,182.47 890.73,199.88 882.61,186.09 892.45,168.69" fill="rgb(94, 142, 102)" stroke="#404040" stroke-width="0.6"/>
<polygon points="920.57,182.3 910.73,199.71 902.61,185.92 912.45,168.51" fill="rgb(121, 182, 132)" stroke="#333333" stroke-width="0.6"/>
<polygon points="910.73,199.71 890.73,199.88 882.61,186.09 902.61,185.92" fill="rgb(108, 162, 117)" stroke="#404040" stroke-width="0.5"/>
<polygon points="892.45,168.69 912.45,168.51 902.61,185.92 882.61,186.09" fill="rgb(150, 225, 162)" stroke="#2a2a2a" stroke-width="0.8"/>
    <polygon points="870.73,200.05 860.88,217.46 846.67,193.34 856.52,175.93" fill="rgb(41, 125, 63)" stroke="#404040" stroke-width="0.6"/>
<polygon points="890.73,199.88 880.88,217.29 866.67,193.16 876.52,175.75" fill="rgb(52, 160, 81)" stroke="#333333" stroke-width="0.6"/>
<polygon points="880.88,217.29 860.88,217.46 846.67,193.34 866.67,193.16" fill="rgb(46, 140, 71)" stroke="#404040" stroke-width="0.5"/>
<polygon points="856.52,175.93 876.52,175.75 866.67,193.16 846.67,193.34" fill="rgb(63, 192, 97)" stroke="#2a2a2a" stroke-width="0.8"/>
    <polygon points="1019.97,112.15 1010.12,129.55 983.73,84.75 993.57,67.34" fill="rgb(28, 93, 45)" stroke="#4a4a4a" stroke-width="0.6"/>
<polygon points="1039.96,111.97 1030.12,129.38 1003.72,84.57 1013.57,67.17" fill="rgb(39, 132, 64)" stroke="#333333" stroke-width="0.6"/>
<polygon points="1030.12,129.38 1010.12,129.55 983.73,84.75 1003.72,84.57" fill="rgb(34, 115, 56)" stroke="#404040" stroke-width="0.5"/>
<polygon points="993.57,67.34 1013.57,67.17 1003.72,84.57 983.73,84.75" fill="rgb(48, 161, 78)" stroke="#2a2a2a" stroke-width="0.8"/>
    <polygon points="990.12,129.73 980.27,147.13 862.52,-52.76 872.37,-70.17" fill="rgb(8, 44, 26)" stroke="#404040" stroke-width="0.6"/>
<polygon points="1010.12,129.55 1000.27,146.96 882.52,-52.94 892.37,-70.34" fill="rgb(11, 56, 34)" stroke="#333333" stroke-width="0.6"/>
<polygon points="1000.27,146.96 980.27,147.13 862.52,-52.76 882.52,-52.94" fill="rgb(9, 49, 29)" stroke="#404040" stroke-width="0.5"/>
<polygon points="872.37,-70.17 892.37,-70.34 882.52,-52.94 862.52,-52.76" fill="rgb(13, 67, 40)" stroke="#2a2a2a" stroke-width="0.8"/>
    <polygon points="1039.96,111.97 1030.12,129.38 1015.91,105.25 1025.75,87.85" fill="rgb(41, 124, 63)" stroke="#404040" stroke-width="0.6"/>
<polygon points="1059.96,111.8 1050.12,129.2 1035.9,105.08 1045.75,87.67" fill="rgb(53, 161, 81)" stroke="#333333" stroke-width="0.6"/>
<polygon points="1050.12,129.2 1030.12,129.38 1015.91,105.25 1035.9,105.08" fill="rgb(46, 141, 71)" stroke="#404040" stroke-width="0.5"/>
<polygon points="1025.75,87.85 1045.75,87.67 1035.9,105.08 1015.91,105.25" fill="rgb(64, 196, 99)" stroke="#2a2a2a" stroke-width="0.8"/>
    <polygon points="860.88,217.46 851.03,234.87 812.46,169.38 822.31,151.98" fill="rgb(31, 104, 50)" stroke="#404040" stroke-width="0.6"/>
<polygon points="880.88,217.29 871.03,234.69 832.46,169.21 842.31,151.8" fill="rgb(40, 133, 64)" stroke="#333333" stroke-width="0.6"/>
<polygon points="871.03,234.69 851.03,234.87 812.46,169.38 832.46,169.21" fill="rgb(35, 116, 56)" stroke="#404040" stroke-width="0.5"/>
<polygon points="822.31,151.98 842.31,151.8 832.46,169.21 812.46,169.38" fill="rgb(48, 160, 77)" stroke="#2a2a2a" stroke-width="0.8"/>
    <polygon points="1059.96,111.8 1050.12,129.2 1042,115.42 1051.84,98.01" fill="rgb(99, 149, 107)" stroke="#404040" stroke-width="0.6"/>
<polygon points="1079.96,111.62 1070.11,129.03 1061.99,115.24 1071.84,97.84" fill="rgb(127, 191, 137)" stroke="#333333" stroke-width="0.6"/>
<polygon points="1070.11,129.03 1050.12,129.2 1042,115.42 1061.99,115.24" fill="rgb(111, 167, 120)" stroke="#404040" stroke-width="0.5"/>
<polygon points="1051.84,98.01 1071.84,97.84 1061.99,115.24 1042,115.42" fill="rgb(155, 233, 168)" stroke="#2a2a2a" stroke-width="0.8"/>
    <polygon points="970.42,164.54 960.57,181.95 952.45,168.16 962.3,150.76" fill="rgb(93, 139, 100)" stroke="#404040" stroke-width="0.6"/>
<polygon points="990.42,164.37 980.57,181.77 972.45,167.99 982.3,150.58" fill="rgb(128, 192, 139)" stroke="#333333" stroke-width="0.6"/>
<polygon points="980.57,181.77 960.57,181.95 952.45,168.16 972.45,167.99" fill="rgb(112, 168, 121)" stroke="#404040" stroke-width="0.5"/>
<polygon points="962.3,150.76 982.3,150.58 972.45,167.99 952.45,168.16" fill="rgb(154, 231, 167)" stroke="#2a2a2a" stroke-width="0.8"/>
    <polygon points="880.88,217.29 871.03,234.69 862.91,220.91 872.76,203.5" fill="rgb(94, 141, 101)" stroke="#404040" stroke-width="0.6"/>
<polygon points="900.88,217.11 891.03,234.52 882.91,220.73 892.76,203.33" fill="rgb(117, 176, 127)" stroke="#333333" stroke-width="0.6"/>
<polygon points="891.03,234.52 871.03,234.69 862.91,220.91 882.91,220.73" fill="rgb(105, 158, 114)" stroke="#404040" stroke-width="0.5"/>
<polygon points="872.76,203.5 892.76,203.33 882.91,220.73 862.91,220.91" fill="rgb(146, 220, 159)" stroke="#2a2a2a" stroke-width="0.8"/>
    <polygon points="910.73,199.71 900.88,217.11 862.3,151.63 872.15,134.22" fill="rgb(31, 104, 50)" stroke="#404040" stroke-width="0.6"/>
<polygon points="930.72,199.53 920.88,216.94 882.3,151.45 892.15,134.05" fill="rgb(37, 124, 60)" stroke="#333333" stroke-width="0.6"/>
<polygon points="920.88,216.94 900.88,217.11 862.3,151.63 882.3,151.45" fill="rgb(33, 111, 54)" stroke="#404040" stroke-width="0.5"/>
<polygon points="872.15,134.22 892.15,134.05 882.3,151.45 862.3,151.63" fill="rgb(47, 158, 77)" stroke="#2a2a2a" stroke-width="0.8"/>
    <polygon points="940.57,182.12 930.72,199.53 879.97,113.37 889.82,95.96" fill="rgb(21, 71, 37)" stroke="#404040" stroke-width="0.6"/>
<polygon points="960.57,181.95 950.72,199.36 899.97,113.19 909.82,95.79" fill="rgb(27, 90, 46)" stroke="#333333" stroke-width="0.6"/>
<polygon points="950.72,199.36 930.72,199.53 879.97,113.37 899.97,113.19" fill="rgb(24, 79, 41)" stroke="#404040" stroke-width="0.5"/>
<polygon points="889.82,95.96 909.82,95.79 899.97,113.19 879.97,113.37" fill="rgb(33, 110, 57)" stroke="#2a2a2a" stroke-width="0.8"/>
    <polygon points="1079.96,111.62 1070.11,129.03 1061.99,115.24 1071.84,97.84" fill="rgb(100, 150, 108)" stroke="#404040" stroke-width="0.6"/>
<polygon points="1099.96,111.45 1090.11,128.86 1081.99,115.07 1091.84,97.66" fill="rgb(127, 191, 137)" stroke="#333333" stroke-width="0.6"/>
<polygon points="1090.11,128.86 1070.11,129.03 1061.99,115.24 1081.99,115.07" fill="rgb(111, 167, 120)" stroke="#404040" stroke-width="0.5"/>
<polygon points="1071.84,97.84 1091.84,97.66 1081.99,115.07 1061.99,115.24" fill="rgb(155, 233, 168)" stroke="#2a2a2a" stroke-width="0.8"/>
    <polygon points="1020.27,146.79 1010.42,164.19 1002.3,150.41 1012.15,133" fill="rgb(101, 151, 109)" stroke="#404040" stroke-width="0.6"/>
<polygon points="1040.27,146.61 1030.42,164.02 1022.3,150.23 1032.15,132.83" fill="rgb(128, 192, 139)" stroke="#333333" stroke-width="0.6"/>
<polygon points="1030.42,164.02 1010.42,164.19 1002.3,150.41 1022.3,150.23" fill="rgb(112, 168, 121)" stroke="#404040" stroke-width="0.5"/>
<polygon points="1012.15,133 1032.15,132.83 1022.3,150.23 1002.3,150.41" fill="rgb(155, 233, 168)" stroke="#2a2a2a" stroke-width="0.8"/>
    <polygon points="960.57,181.95 950.72,199.36 930.42,164.89 940.27,147.48" fill="rgb(38, 116, 59)" stroke="#404040" stroke-width="0.6"/>
<polygon points="980.57,181.77 970.72,199.18 950.42,164.72 960.27,147.31" fill="rgb(52, 159, 80)" stroke="#333333" stroke-width="0.6"/>
<polygon points="970.72,199.18 950.72,199.36 930.42,164.89 950.42,164.72" fill="rgb(46, 139, 70)" stroke="#404040" stroke-width="0.5"/>
<polygon points="940.27,147.48 960.27,147.31 950.42,164.72 930.42,164.89" fill="rgb(64, 195, 99)" stroke="#2a2a2a" stroke-width="0.8"/>
    <polygon points="900.88,217.11 891.03,234.52 864.64,189.71 874.49,172.31" fill="rgb(31, 104, 51)" stroke="#404040" stroke-width="0.6"/>
<polygon points="920.88,216.94 911.03,234.34 884.64,189.54 894.48,172.13" fill="rgb(37, 124, 60)" stroke="#333333" stroke-width="0.6"/>
<polygon points="911.03,234.34 891.03,234.52 864.64,189.71 884.64,189.54" fill="rgb(33, 111, 54)" stroke="#404040" stroke-width="0.5"/>
<polygon points="874.49,172.31 894.48,172.13 884.64,189.54 864.64,189.71" fill="rgb(46, 153, 74)" stroke="#2a2a2a" stroke-width="0.8"/>
    <polygon points="930.72,199.53 920.88,216.94 845.76,89.42 855.61,72.01" fill="rgb(21, 71, 37)" stroke="#404040" stroke-width="0.6"/>
<polygon points="950.72,199.36 940.88,216.76 865.76,89.24 875.61,71.84" fill="rgb(27, 90, 47)" stroke="#333333" stroke-width="0.6"/>
<polygon points="940.88,216.76 920.88,216.94 845.76,89.42 865.76,89.24" fill="rgb(24, 79, 41)" stroke="#404040" stroke-width="0.5"/>
<polygon points="855.61,72.01 875.61,71.84 865.76,89.24 845.76,89.42" fill="rgb(33, 109, 56)" stroke="#2a2a2a" stroke-width="0.8"/>
    <polygon points="1099.96,111.45 1090.11,128.86 1081.99,115.07 1091.84,97.66" fill="rgb(100, 150, 108)" stroke="#404040" stroke-width="0.6"/>
<polygon points="1119.96,111.27 1110.11,128.68 1101.99,114.89 1111.84,97.49" fill="rgb(127, 191, 137)" stroke="#333333" stroke-width="0.6"/>
<polygon points="1110.11,128.68 1090.11,128.86 1081.99,115.07 1101.99,114.89" fill="rgb(111, 167, 120)" stroke="#404040" stroke-width="0.5"/>
<polygon points="1091.84,97.66 1111.84,97.49 1101.99,114.89 1081.99,115.07" fill="rgb(155, 233, 168)" stroke="#2a2a2a" stroke-width="0.8"/>
    <polygon points="950.72,199.36 940.88,216.76 926.66,192.64 936.51,175.23" fill="rgb(35, 106, 54)" stroke="#4a4a4a" stroke-width="0.6"/>
<polygon points="970.72,199.18 960.87,216.59 946.66,192.46 956.51,175.06" fill="rgb(52, 158, 80)" stroke="#333333" stroke-width="0.6"/>
<polygon points="960.87,216.59 940.88,216.76 926.66,192.64 946.66,192.46" fill="rgb(45, 139, 70)" stroke="#404040" stroke-width="0.5"/>
<polygon points="936.51,175.23 956.51,175.06 946.66,192.46 926.66,192.64" fill="rgb(61, 186, 94)" stroke="#2a2a2a" stroke-width="0.8"/>
    <polygon points="920.88,216.94 911.03,234.34 860.27,148.18 870.12,130.77" fill="rgb(21, 70, 36)" stroke="#404040" stroke-width="0.6"/>
<polygon points="940.88,216.76 931.03,234.17 880.27,148.01 890.12,130.6" fill="rgb(27, 90, 47)" stroke="#333333" stroke-width="0.6"/>
<polygon points="931.03,234.17 911.03,234.34 860.27,148.18 880.27,148.01" fill="rgb(24, 79, 41)" stroke="#404040" stroke-width="0.5"/>
<polygon points="870.12,130.77 890.12,130.6 880.27,148.01 860.27,148.18" fill="rgb(32, 107, 55)" stroke="#2a2a2a" stroke-width="0.8"/>
    <polygon points="1119.96,111.27 1110.11,128.68 1101.99,114.89 1111.84,97.49" fill="rgb(100, 150, 108)" stroke="#404040" stroke-width="0.6"/>
<polygon points="1139.96,111.1 1130.11,128.51 1121.99,114.72 1131.84,97.31" fill="rgb(127, 191, 137)" stroke="#333333" stroke-width="0.6"/>
<polygon points="1130.11,128.51 1110.11,128.68 1101.99,114.89 1121.99,114.72" fill="rgb(111, 167, 120)" stroke="#404040" stroke-width="0.5"/>
<polygon points="1111.84,97.49 1131.84,97.31 1121.99,114.72 1101.99,114.89" fill="rgb(155, 233, 168)" stroke="#2a2a2a" stroke-width="0.8"/>
    <polygon points="940.88,216.76 931.03,234.17 916.82,210.04 926.66,192.64" fill="rgb(37, 112, 57)" stroke="#4a4a4a" stroke-width="0.6"/>
<polygon points="960.87,216.59 951.03,234 936.82,209.87 946.66,192.46" fill="rgb(52, 158, 80)" stroke="#333333" stroke-width="0.6"/>
<polygon points="951.03,234 931.03,234.17 916.82,210.04 936.82,209.87" fill="rgb(45, 139, 70)" stroke="#404040" stroke-width="0.5"/>
<polygon points="926.66,192.64 946.66,192.46 936.82,209.87 916.82,210.04" fill="rgb(59, 180, 91)" stroke="#2a2a2a" stroke-width="0.8"/>
    <polygon points="970.72,199.18 960.87,216.59 934.48,171.78 944.33,154.38" fill="rgb(30, 102, 49)" stroke="#404040" stroke-width="0.6"/>
<polygon points="990.72,199.01 980.87,216.41 954.48,171.61 964.33,154.2" fill="rgb(40, 133, 64)" stroke="#333333" stroke-width="0.6"/>
<polygon points="980.87,216.41 960.87,216.59 934.48,171.78 954.48,171.61" fill="rgb(35, 116, 56)" stroke="#404040" stroke-width="0.5"/>
<polygon points="944.33,154.38 964.33,154.2 954.48,171.61 934.48,171.78" fill="rgb(48, 160, 77)" stroke="#2a2a2a" stroke-width="0.8"/>
    <polygon points="1139.96,111.1 1130.11,128.51 1121.99,114.72 1131.84,97.31" fill="rgb(100, 150, 108)" stroke="#404040" stroke-width="0.6"/>
<polygon points="1159.96,110.92 1150.11,128.33 1141.99,114.55 1151.84,97.14" fill="rgb(128, 192, 139)" stroke="#333333" stroke-width="0.6"/>
<polygon points="1150.11,128.33 1130.11,128.51 1121.99,114.72 1141.99,114.55" fill="rgb(112, 168, 121)" stroke="#404040" stroke-width="0.5"/>
<polygon points="1131.84,97.31 1151.84,97.14 1141.99,114.55 1121.99,114.72" fill="rgb(155, 233, 168)" stroke="#2a2a2a" stroke-width="0.8"/>
  </g>
  <text x="1429.708538654905" y="573.7477626540199" class="credit-text" text-anchor="end">generated by github.com/eshahhh/contributions-terrain</text>
</svg>